<svg id="OBJECTS" xmlns="http://www.w3.org/2000/svg" width="202.313" height="173.629" viewBox="0 0 202.313 173.629">
  <path id="_Path_" data-name="&lt;Path&gt;" fill="#42346e"/>
  <path id="_Path_2" data-name="&lt;Path&gt;" d="M105.077,136.145l.382,1.421a.134.134,0,0,0,.17.085l1.421-.36a.129.129,0,0,1,.127.212l-1.039,1.039a.119.119,0,0,0,0,.191l1.039,1.039c.085.106,0,.276-.127.233l-1.421-.382a.131.131,0,0,0-.17.106l-.382,1.421a.147.147,0,0,1-.276,0l-.36-1.421a.139.139,0,0,0-.17-.106l-1.421.382a.135.135,0,0,1-.127-.233l1.018-1.039a.119.119,0,0,0,0-.191l-1.018-1.039a.125.125,0,0,1,.127-.212l1.421.36a.144.144,0,0,0,.17-.085l.36-1.421A.147.147,0,0,1,105.077,136.145Z" transform="translate(-80.907 -107.204)" fill="#ebaf52"/>
  <g id="_Group_" data-name="&lt;Group&gt;" transform="translate(28.143 43.758)">
    <path id="_Path_3" data-name="&lt;Path&gt;" d="M736.592,407.286l.382,1.4a.139.139,0,0,0,.17.106l1.421-.382a.137.137,0,0,1,.127.233l-1.039,1.039a.158.158,0,0,0,0,.191l1.039,1.039a.138.138,0,0,1-.127.233l-1.421-.382a.144.144,0,0,0-.17.085l-.382,1.421a.128.128,0,0,1-.254,0l-.382-1.421a.134.134,0,0,0-.17-.085l-1.421.382a.138.138,0,0,1-.127-.233l1.039-1.039a.119.119,0,0,0,0-.191l-1.039-1.039a.137.137,0,0,1,.127-.233l1.421.382a.131.131,0,0,0,.17-.106l.382-1.4A.128.128,0,0,1,736.592,407.286Z" transform="translate(-606.672 -364.602)" fill="#ebaf52"/>
    <path id="_Path_4" data-name="&lt;Path&gt;" d="M831.8,580.409l.573,2.163a.188.188,0,0,0,.254.148l2.184-.573a.2.2,0,0,1,.191.339l-1.59,1.59a.2.2,0,0,0,0,.3l1.59,1.611a.2.2,0,0,1-.191.339l-2.184-.572a.188.188,0,0,0-.254.148l-.573,2.163a.207.207,0,0,1-.4,0L830.8,585.9a.188.188,0,0,0-.254-.148l-2.184.572a.2.2,0,0,1-.191-.339l1.59-1.611a.2.2,0,0,0,0-.3l-1.59-1.59a.2.2,0,0,1,.191-.339l2.184.573a.188.188,0,0,0,.254-.148l.594-2.163A.207.207,0,0,1,831.8,580.409Z" transform="translate(-680.678 -500.981)" fill="#ffeac9"/>
    <path id="_Path_5" data-name="&lt;Path&gt;" d="M240.4,330.709l.594,2.163a.182.182,0,0,0,.254.148l2.163-.572a.206.206,0,0,1,.212.339l-1.59,1.611a.181.181,0,0,0,0,.276l1.59,1.611a.206.206,0,0,1-.212.339l-2.163-.573a.182.182,0,0,0-.254.148l-.594,2.163a.207.207,0,0,1-.4,0l-.572-2.163a.208.208,0,0,0-.276-.148l-2.163.573a.206.206,0,0,1-.212-.339l1.59-1.611a.181.181,0,0,0,0-.276l-1.59-1.611a.206.206,0,0,1,.212-.339l2.163.572a.208.208,0,0,0,.276-.148l.572-2.163A.207.207,0,0,1,240.4,330.709Z" transform="translate(-214.671 -304.224)" fill="#e5e7dd"/>
    <path id="_Path_6" data-name="&lt;Path&gt;" d="M238.385,330.624l.269,1.011a.082.082,0,0,0,.115.069l.979-.268a.1.1,0,0,1,.1.159l-.72.754a.087.087,0,0,0,0,.129l.72.754a.1.1,0,0,1-.1.159l-.979-.268a.082.082,0,0,0-.115.069l-.269,1.011a.093.093,0,0,1-.182,0l-.259-1.011a.094.094,0,0,0-.125-.069l-.979.268a.1.1,0,0,1-.1-.159l.72-.754a.087.087,0,0,0,0-.129l-.72-.754a.1.1,0,0,1,.1-.159l.979.268a.094.094,0,0,0,.125-.069l.259-1.011A.093.093,0,0,1,238.385,330.624Z" transform="translate(-122.265 -330.55)" fill="#ff9b00"/>
    <path id="_Path_7" data-name="&lt;Path&gt;" d="M137.648,592.332l.785,2.9a.272.272,0,0,0,.339.191l2.9-.763a.272.272,0,0,1,.254.466l-2.12,2.12a.3.3,0,0,0,0,.4l2.12,2.12a.274.274,0,0,1-.254.466l-2.9-.785a.272.272,0,0,0-.339.191l-.785,2.9a.273.273,0,0,1-.53,0l-.784-2.9a.272.272,0,0,0-.339-.191l-2.9.785a.284.284,0,0,1-.276-.466l2.141-2.12a.3.3,0,0,0,0-.4l-2.141-2.12a.281.281,0,0,1,.276-.466l2.9.763a.272.272,0,0,0,.339-.191l.784-2.9A.273.273,0,0,1,137.648,592.332Z" transform="translate(-132.737 -510.339)" fill="#e5e7dd"/>
  </g>
  <g id="_Group_2" data-name="&lt;Group&gt;" transform="translate(9.944 4.983)">
    <g id="_Group_3" data-name="&lt;Group&gt;">
      <path id="_Path_8" data-name="&lt;Path&gt;" d="M448.117,24.412a.9.9,0,0,0-.085-.276.532.532,0,0,0-.127-.212.416.416,0,0,0-.191-.191.349.349,0,0,0-.233-.127.705.705,0,0,0-.382-.106q-.148.021-.276.042l-.254.106-.212.17-.17.212-.106.233a.722.722,0,0,0,0,.424.565.565,0,0,0,.064.254.86.86,0,0,0,.212.339q.127.106.276.212a1.268,1.268,0,0,0,.466.127,1.238,1.238,0,0,0,.445-.127q.148-.106.276-.212l.17-.212.106-.254a.789.789,0,0,0,.021-.4Z" transform="translate(-361.421 -23.5)" fill="#fff"/>
      <path id="_Path_9" data-name="&lt;Path&gt;" d="M364.772,248.9a.594.594,0,0,0,0,1.187A.594.594,0,0,0,364.772,248.9Z" transform="translate(-296.925 -201.11)" fill="#fff"/>
      <path id="_Path_10" data-name="&lt;Path&gt;" d="M192.041,61.091a.236.236,0,0,1-.021-.106,1.315,1.315,0,0,0-.276-.466,1.285,1.285,0,0,0-.488-.276.917.917,0,0,0-.551,0,1.285,1.285,0,0,0-.488.276,1.314,1.314,0,0,0-.276.466.987.987,0,0,0,0,.572,1.046,1.046,0,0,0,.763.763.188.188,0,0,1,.085.021,1.21,1.21,0,0,0,.551,0,.975.975,0,0,0,.7-.7A1.211,1.211,0,0,0,192.041,61.091Z" transform="translate(-159.581 -52.419)" fill="#fff"/>
      <path id="_Path_11" data-name="&lt;Path&gt;" d="M48.109,238.342a.163.163,0,0,0-.021-.064.349.349,0,0,0-.021-.106.086.086,0,0,1-.021-.064.019.019,0,0,1-.021-.021.061.061,0,0,1-.021-.042l-.127-.191a.613.613,0,0,0-.191-.191.486.486,0,0,0-.254-.064.47.47,0,0,1-.148.021.532.532,0,0,0-.212.127.375.375,0,0,0-.106.17.409.409,0,0,0-.064.212.547.547,0,0,0,.276.445,1.115,1.115,0,0,0,.17.106l.042.042h.042l.106.064h.127a.163.163,0,0,0,.064.021.261.261,0,0,0,.148-.042A.269.269,0,0,0,48,238.7a.332.332,0,0,1,.064-.085.421.421,0,0,0,.042-.191v-.085Z" transform="translate(-46.9 -192.206)" fill="#fff"/>
      <path id="_Path_12" data-name="&lt;Path&gt;" d="M155.229,341.2a1.137,1.137,0,0,0-.339-.594l-.276-.212a1.3,1.3,0,0,0-.678-.191,1.046,1.046,0,0,0-.509.127.771.771,0,0,0-.424.276.964.964,0,0,0-.276.424,1.045,1.045,0,0,0-.127.509l.064.36a1.258,1.258,0,0,0,.339.594l.276.212a1.3,1.3,0,0,0,.657.17,1,1,0,0,0,.53-.106,1.219,1.219,0,0,0,.7-.7,1,1,0,0,0,.106-.53Z" transform="translate(-130.189 -273.052)" fill="#fff"/>
      <path id="_Path_13" data-name="&lt;Path&gt;" d="M122.732,392.5a.573.573,0,0,0,0,1.145A.573.573,0,0,0,122.732,392.5Z" transform="translate(-106.215 -314.263)" fill="#fff"/>
      <path id="_Path_14" data-name="&lt;Path&gt;" d="M219.49,554.25a.509.509,0,0,0-.17-.254,1.137,1.137,0,0,0-.318-.318l-.127-.042a1.075,1.075,0,0,0-.551-.148.719.719,0,0,0-.424.085.761.761,0,0,0-.36.233,1.285,1.285,0,0,0-.276.488.349.349,0,0,1-.021.106q-.021.148-.042.318a.983.983,0,0,0,.106.445.579.579,0,0,0,.148.276.864.864,0,0,0,.339.3.472.472,0,0,0,.148.064.2.2,0,0,0,.148.064.019.019,0,0,1,.021.021,2.567,2.567,0,0,1,.318.021.719.719,0,0,0,.424-.085.578.578,0,0,0,.254-.148.911.911,0,0,0,.3-.318.671.671,0,0,0,.127-.318q.021-.17.042-.318a.863.863,0,0,0-.085-.466Z" transform="translate(-181.092 -441.114)" fill="#fff"/>
      <path id="_Path_15" data-name="&lt;Path&gt;" d="M73.491,617.2a.562.562,0,0,0,0,1.124A.562.562,0,0,0,73.491,617.2Z" transform="translate(-67.427 -491.321)" fill="#fff"/>
      <path id="_Path_16" data-name="&lt;Path&gt;" d="M284.407,725.924a1.172,1.172,0,0,0-.106-.233.68.68,0,0,0-.254-.276.79.79,0,0,0-.339-.191l-.127-.042a1.21,1.21,0,0,0-.551,0,1.124,1.124,0,0,0-.445.276l-.17.212a1.089,1.089,0,0,0-.127.53.589.589,0,0,0,.085.382.859.859,0,0,0,.212.339,1.124,1.124,0,0,0,.445.276,1.212,1.212,0,0,0,.551,0l.127-.042a1.939,1.939,0,0,1,.254-.106.68.68,0,0,0,.276-.254.532.532,0,0,0,.127-.212.933.933,0,0,0,.085-.382Z" transform="translate(-232.376 -576.383)" fill="#fff"/>
      <path id="_Path_17" data-name="&lt;Path&gt;" d="M459.218,812.469a.127.127,0,0,0-.021-.085h0v-.042a.061.061,0,0,1-.021-.042.387.387,0,0,0-.3-.3.086.086,0,0,0-.064-.021h-.042l-.148-.021a.09.09,0,0,0-.085,0c-.064,0-.085,0-.106.021h-.021a.061.061,0,0,1-.042.021.35.35,0,0,1-.106.021,1.057,1.057,0,0,0-.318.191.633.633,0,0,0-.17.318.72.72,0,0,0,.17.7.76.76,0,0,0,.7.17.633.633,0,0,0,.318-.17.776.776,0,0,0,.17-.318.821.821,0,0,0,.042-.106.061.061,0,0,1,.021-.042v-.021a.191.191,0,0,0,.021-.106Z" transform="translate(-370.635 -644.78)" fill="#fff"/>
      <path id="_Path_18" data-name="&lt;Path&gt;" d="M527.593,716.766a.019.019,0,0,0,.021.021.188.188,0,0,1-.021-.085v.021h0a.061.061,0,0,1,.021-.042,1.338,1.338,0,0,0-.212-.721.994.994,0,0,0-.36-.4,1.082,1.082,0,0,0-.488-.255,1.4,1.4,0,0,0-.763,0h-.021a3.019,3.019,0,0,0-.382.17.061.061,0,0,0-.042.021h-.021q-.148.127-.3.233a1.3,1.3,0,0,0-.254.339,2.528,2.528,0,0,0-.17.424,1.557,1.557,0,0,0,0,.806l.148.36a1.712,1.712,0,0,0,.551.551,1.009,1.009,0,0,0,.573.17.949.949,0,0,0,.594-.021,1.128,1.128,0,0,0,.53-.276,1.117,1.117,0,0,0,.382-.424,1.31,1.31,0,0,0,.191-.509A1.188,1.188,0,0,0,527.593,716.766Z" transform="translate(-423.277 -568.582)" fill="#fff"/>
      <path id="_Path_19" data-name="&lt;Path&gt;" d="M659.013,798.3a.594.594,0,0,0,0,1.187A.594.594,0,0,0,659.013,798.3Z" transform="translate(-528.767 -634.024)" fill="#fff"/>
      <path id="_Path_20" data-name="&lt;Path&gt;" d="M741.006,590.1a1.205,1.205,0,0,0-.318-.551l-.233-.191a1.262,1.262,0,0,0-.636-.17.761.761,0,0,0-.466.106,1.082,1.082,0,0,0-.657.657.762.762,0,0,0-.106.466l.042.339a1.074,1.074,0,0,0,.318.53l.254.212a1.475,1.475,0,0,0,.615.17,1,1,0,0,0,.488-.127.827.827,0,0,0,.382-.254.707.707,0,0,0,.255-.382.851.851,0,0,0,.106-.488Q741.027,590.249,741.006,590.1Z" transform="translate(-591.932 -469.247)" fill="#fff"/>
      <path id="_Path_21" data-name="&lt;Path&gt;" d="M927.94,642.567h0v-.021a.188.188,0,0,1-.021-.085.061.061,0,0,1-.021-.042V642.4l-.042-.085a.539.539,0,0,0-.064-.127.2.2,0,0,0-.106-.085.138.138,0,0,0-.064-.064l-.127-.042a.453.453,0,0,0-.233-.021.261.261,0,0,0-.148.042.386.386,0,0,0-.17.127.7.7,0,0,0-.085.106.537.537,0,0,0-.064.127.452.452,0,0,0-.021.233.666.666,0,0,0,.085.212h0l.085.127a.694.694,0,0,1,.106.085.47.47,0,0,0,.148.064h.064a.188.188,0,0,0,.085.021.019.019,0,0,1,.021.021h.254a.4.4,0,0,0,.127-.021.267.267,0,0,0,.106-.064.244.244,0,0,1,.042-.064.282.282,0,0,0,.064-.17v-.127a.4.4,0,0,1-.021-.127Z" transform="translate(-740.214 -510.837)" fill="#fff"/>
      <path id="_Path_22" data-name="&lt;Path&gt;" d="M880.459,449.9a.689.689,0,0,0,0,1.378A.689.689,0,0,0,880.459,449.9Z" transform="translate(-703.186 -359.493)" fill="#fff"/>
      <path id="_Path_23" data-name="&lt;Path&gt;" d="M689.641,281.993a.77.77,0,0,0-.042-.36,1.206,1.206,0,0,0-.318-.551,1.355,1.355,0,0,0-.573-.318.96.96,0,0,0-.339-.064h-.021a1.2,1.2,0,0,0-.382.064.908.908,0,0,0-.382.17,3.619,3.619,0,0,0-.3.233l-.042.042a.334.334,0,0,1-.064.085.964.964,0,0,0-.276.424,1.274,1.274,0,0,0,0,1.018.964.964,0,0,0,.276.424q.148.106.276.212a1.261,1.261,0,0,0,.657.191q.191-.042.36-.064a1.259,1.259,0,0,0,.594-.339l.064-.064a.061.061,0,0,0,.042-.021,1.427,1.427,0,0,0,.233-.3.894.894,0,0,0,.191-.4,1.574,1.574,0,0,0,.042-.382Z" transform="translate(-551.126 -226.167)" fill="#fff"/>
      <path id="_Path_24" data-name="&lt;Path&gt;" d="M948.345,242.885a.63.63,0,0,0-.318-.085.753.753,0,0,0-.339.085,1.172,1.172,0,0,1-.233.106.5.5,0,0,0-.254.466.565.565,0,0,0,.064.254.416.416,0,0,0,.191.191q.127.064.233.106a1.047,1.047,0,0,0,.339.106.847.847,0,0,0,.318-.106.611.611,0,0,0,.339-.551.668.668,0,0,0-.339-.572Z" transform="translate(-756.315 -196.303)" fill="#fff"/>
      <path id="_Path_25" data-name="&lt;Path&gt;" d="M818.358,108.6a1.443,1.443,0,0,0,0,2.884A1.443,1.443,0,0,0,818.358,108.6Z" transform="translate(-653.701 -90.557)" fill="#fff"/>
      <path id="_Path_26" data-name="&lt;Path&gt;" d="M660.059,49.7a.711.711,0,0,0,0,1.421A.711.711,0,0,0,660.059,49.7Z" transform="translate(-529.516 -44.145)" fill="#fff"/>
      <path id="_Path_27" data-name="&lt;Path&gt;" d="M505.372,196.7a.594.594,0,0,0,0,1.187A.594.594,0,0,0,505.372,196.7Z" transform="translate(-407.714 -159.977)" fill="#fff"/>
      <path id="_Path_28" data-name="&lt;Path&gt;" d="M49.53,556.718a.739.739,0,0,0-.148-.148.247.247,0,0,1-.064-.042.31.31,0,0,0-.191-.064q-.064-.021-.148-.042a.458.458,0,0,0-.276,0,.578.578,0,0,0-.254.148.7.7,0,0,0-.085.106.608.608,0,0,0-.064.276.567.567,0,0,0,.042.212.271.271,0,0,0,.106.17.578.578,0,0,0,.254.148.458.458,0,0,0,.276,0q.085-.021.148-.042a.753.753,0,0,0,.191-.064.248.248,0,0,1,.064-.042.739.739,0,0,0,.148-.148.459.459,0,0,0,0-.466Z" transform="translate(-48.003 -443.412)" fill="#fff"/>
    </g>
  </g>
  <g id="_Group_4" data-name="&lt;Group&gt;" transform="translate(1.699 5.152)">
    <path id="_Path_29" data-name="&lt;Path&gt;" d="M128.756,472.147a5.005,5.005,0,0,1-3.9-2.947,4.975,4.975,0,0,1,0,1.484,3.7,3.7,0,0,0,3.9,4.431C128.65,475.115,128.926,472.168,128.756,472.147Z" transform="translate(-100.03 -374.871)" fill="#65c42f" opacity="0.79"/>
    <path id="_Path_30" data-name="&lt;Path&gt;" d="M337.265,253.7a3.622,3.622,0,0,0-3.117,2.99c-.148.975.17,2.014,0,2.968a3.622,3.622,0,0,1,3.117-2.99C337.414,256.647,337.181,253.7,337.265,253.7Z" transform="translate(-264.968 -205.062)" fill="#65c42f" opacity="0.79"/>
    <path id="_Path_31" data-name="&lt;Path&gt;" d="M304.305,47.484A7.014,7.014,0,0,1,304.284,46q-1.569.869-3.117,1.76a5.713,5.713,0,0,0-.021,1.484,7.016,7.016,0,0,1,.021,1.484q1.548-.89,3.117-1.76A5.713,5.713,0,0,0,304.305,47.484Z" transform="translate(-238.962 -41.399)" fill="#65c42f" opacity="0.4"/>
    <path id="_Path_32" data-name="&lt;Path&gt;" d="M702.835,303.317a3.911,3.911,0,0,0-2.8-3.117c.042.021-.021,1.378-.021,1.484a8.5,8.5,0,0,0,.021,1.484,3.911,3.911,0,0,1,2.8,3.117C702.665,305.31,703,304.271,702.835,303.317Z" transform="translate(-553.276 -241.703)" fill="#65c42f" opacity="0.83"/>
    <path id="_Path_33" data-name="&lt;Path&gt;" d="M909.3,247.184c0-.106-.042-1.463,0-1.484a6.194,6.194,0,0,0-3.032,1.654,3.08,3.08,0,0,0,0,.445v2.1c0,.064.042.4,0,.424a6.194,6.194,0,0,1,3.032-1.654A11.524,11.524,0,0,0,909.3,247.184Z" transform="translate(-715.807 -198.758)" fill="#65c42f" opacity="0.83"/>
    <path id="_Path_34" data-name="&lt;Path&gt;" d="M731.954,27.968a4.027,4.027,0,0,1-1.124-1.336,5.021,5.021,0,0,1-.318-.806,2.245,2.245,0,0,1-.085-.424q-.042-.254-.064-.36,0-.36.021-.742-.021.339-.042.7a1.453,1.453,0,0,0-.021.4,18.1,18.1,0,0,0,.064,2.629,4.12,4.12,0,0,0,1.569,2.9,5.78,5.78,0,0,1,0-1.484C731.954,29.24,732.123,28.116,731.954,27.968Z" transform="translate(-577.158 -24.3)" fill="#9cb3e7"/>
    <path id="_Path_35" data-name="&lt;Path&gt;" d="M692.445,606.6a3.358,3.358,0,0,0-3.647,1.887,4.344,4.344,0,0,0-.021,1.484v1.039a3.286,3.286,0,0,1,.021.445,3.358,3.358,0,0,1,3.647-1.887C692.3,609.543,692.635,606.617,692.445,606.6Z" transform="translate(-544.391 -483.092)" fill="#65c42f" opacity="0.4"/>
    <path id="_Path_36" data-name="&lt;Path&gt;" d="M460.994,736.655a1.727,1.727,0,0,0-2.693-.551,1.67,1.67,0,0,0-.021.445v2.1a3.137,3.137,0,0,1,.021.424,1.727,1.727,0,0,1,2.693.551,1.413,1.413,0,0,1,0-.424v-2.1A1.567,1.567,0,0,0,460.994,736.655Z" transform="translate(-362.809 -584.846)" fill="#9cb3e7"/>
    <path id="_Path_37" data-name="&lt;Path&gt;" d="M840.437,672.245A2.967,2.967,0,0,0,837.7,673.5a1.642,1.642,0,0,0-.021.445v2.1c0,.085.064.36.021.424a2.967,2.967,0,0,1,2.735-1.251C840.373,675.192,840.543,672.245,840.437,672.245Z" transform="translate(-661.767 -534.853)" fill="#9cb3e7"/>
    <path id="_Path_38" data-name="&lt;Path&gt;" d="M208.381,717.093a1.857,1.857,0,0,0-2.459.254,3.1,3.1,0,0,0,0,.445q-.021.509-.021,1.039t.021,1.06c0,.064.042.382,0,.424a1.856,1.856,0,0,1,2.459-.254,3.1,3.1,0,0,1,0-.445v-2.1C208.381,717.454,208.423,717.136,208.381,717.093Z" transform="translate(-163.943 -569.928)" fill="#9cb3e7"/>
    <path id="_Path_39" data-name="&lt;Path&gt;" d="M39.91,270.183a4.283,4.283,0,0,0-3.647,1.7c-.191.212-.021,1.187-.021,1.484V274.4a3.283,3.283,0,0,1,.021.445,4.283,4.283,0,0,1,3.647-1.7C39.889,273.152,39.973,270.183,39.91,270.183Z" transform="translate(-30.202 -218.047)" fill="#65c42f" opacity="0.79"/>
    <path id="_Path_40" data-name="&lt;Path&gt;" d="M42.1,270.186a6.8,6.8,0,0,0-5.788,2.692c-.3.337-.034,1.885-.034,2.356v1.649a5.211,5.211,0,0,1,.034.707A6.8,6.8,0,0,1,42.1,274.9C42.071,274.9,42.206,270.186,42.1,270.186Z" transform="translate(-36.172 -201.33)" fill="#65c42f" opacity="0.79"/>
  </g>
</svg>
