<?xml version="1.0" standalone="no"?>
<!DOCTYPE svg PUBLIC "-//W3C//DTD SVG 1.1//EN" "http://www.w3.org/Graphics/SVG/1.1/DTD/svg11.dtd" >
<svg xmlns="http://www.w3.org/2000/svg">
<metadata>Generated by IcoMoon</metadata>
<defs>
<font id="icomoon" horiz-adv-x="1024">
<font-face units-per-em="1024" ascent="960" descent="-64" />
<missing-glyph horiz-adv-x="1024" />
<glyph unicode="&#x20;" horiz-adv-x="512" d="" />
<glyph unicode="&#xe900;" glyph-name="graph" d="M170.681 960c-94.264 0-170.681-76.416-170.681-170.681v0-682.639c0-94.264 76.416-170.681 170.681-170.681v0h682.639c94.264 0 170.681 76.416 170.681 170.681v0 682.639c0 94.264-76.416 170.681-170.681 170.681v0zM264.536 307.469c-0.013-0.472-0.021-1.028-0.021-1.585 0-33.001 26.752-59.753 59.753-59.753s59.753 26.752 59.753 59.753c0 0.557-0.008 1.113-0.023 1.667l0.002-0.082v86.329c-0.884 32.312-27.289 58.168-59.732 58.168s-58.848-25.856-59.73-58.086l-0.002-0.082zM512 247.884c-33.001 0-59.753 26.752-59.753 59.753v0 280.852c-0.013 0.472-0.021 1.028-0.021 1.585 0 33.001 26.752 59.753 59.753 59.753s59.753-26.752 59.753-59.753c0-0.557-0.008-1.113-0.023-1.667l0.002 0.082v-281.020c-0.096-32.914-26.787-59.561-59.709-59.585h-0.002zM640 307.637c0.884-32.312 27.289-58.168 59.732-58.168s58.848 25.856 59.73 58.086l0.002 0.082v196.752c-0.884 32.312-27.289 58.168-59.732 58.168s-58.848-25.856-59.73-58.086l-0.002-0.082z" />
<glyph unicode="&#xe901;" glyph-name="arrow-down" d="M0 711.877c0 0.002 0 0.005 0 0.008 0 28.277 22.923 51.2 51.2 51.2 14.63 0 27.827-6.136 37.158-15.975l0.022-0.023 434.334-457.807 434.334 457.807c9.353 9.861 22.549 15.996 37.179 15.996 28.28 0 51.206-22.926 51.206-51.206 0-13.65-5.341-26.053-14.048-35.233l0.021 0.023-508.692-536.182-508.692 536.182c-8.681 9.132-14.021 21.512-14.021 35.139 0 0.025 0 0.050 0 0.075v-0.004z" />
<glyph unicode="&#xe902;" glyph-name="arrow-left" d="M488.634 145.734l-469.364 467.782c-11.886 12.183-19.219 28.857-19.219 47.244s7.332 35.060 19.232 47.257l-0.013-0.014c12.183 11.886 28.857 19.219 47.244 19.219s35.060-7.332 47.257-19.232l-0.014 0.013 421.329-421.236 421.329 421.236c12.183 11.886 28.857 19.219 47.244 19.219s35.060-7.332 47.257-19.232l-0.014 0.013c11.886-12.183 19.219-28.857 19.219-47.244s-7.332-35.060-19.232-47.257l0.013 0.014-467.782-467.782c-12.183-11.886-28.857-19.219-47.244-19.219s-35.060 7.332-47.257 19.232l0.014-0.013z" />
<glyph unicode="&#xe903;" glyph-name="arrow-right" d="M488.634 708.003l-469.364-467.782c-11.886-12.183-19.219-28.857-19.219-47.244s7.332-35.060 19.232-47.257l-0.013 0.014c12.183-11.886 28.857-19.219 47.244-19.219s35.060 7.332 47.257 19.232l-0.014-0.013 421.329 421.329 421.329-421.329c11.946-11.308 28.115-18.26 45.908-18.26 36.914 0 66.839 29.925 66.839 66.839 0 17.793-6.953 33.962-18.289 45.939l0.029-0.031-467.782 467.782c-12.183 11.886-28.857 19.219-47.244 19.219s-35.060-7.332-47.257-19.232l0.014 0.013z" />
<glyph unicode="&#xe904;" glyph-name="checkbox-tick" d="M972.459 679.083l-551.083-588.8c-15.202-16.183-36.739-26.263-60.629-26.263s-45.427 10.080-60.588 26.219l-0.041 0.044-274.859 276.224c-15.639 16.457-25.259 38.764-25.259 63.317s9.62 46.86 25.296 63.357l-0.037-0.039c15.202 16.183 36.739 26.263 60.629 26.263s45.427-10.080 60.588-26.219l0.041-0.044 215.552-212.907 490.411 525.483c15.202 16.183 36.739 26.263 60.629 26.263s45.427-10.080 60.588-26.219l0.041-0.044c14.962-16.493 24.121-38.489 24.121-62.624 0-24.799-9.669-47.339-25.444-64.056l0.043 0.046z" />
<glyph unicode="&#xe905;" glyph-name="delete" horiz-adv-x="962" d="M232.785-64c-68.536 0-124.095 55.559-124.095 124.095v0 667.119h-77.575c-17.151 0-31.054 13.903-31.054 31.054v0c0 0 0 0 0 0 0 17.117 13.876 30.993 30.993 30.993 0.021 0 0.043 0 0.064 0h263.776v77.575c0 0.018 0 0.039 0 0.061 0 51.385 41.656 93.041 93.041 93.041h186.204c51.393-0.035 93.041-41.705 93.041-93.102v-77.575h263.718c0.018 0 0.039 0 0.061 0 17.117 0 30.993-13.876 30.993-30.993 0 0 0 0 0 0v0c0-17.151-13.903-31.054-31.054-31.054v0h-77.453v-667.119c-0.035-68.543-55.608-124.095-124.156-124.095v0zM170.738 60.095c0-34.268 27.78-62.048 62.048-62.048v0h496.442c34.268 0 62.048 27.78 62.048 62.048v667.119h-620.538zM356.881 866.898v-77.575h248.191v77.575c0 0 0 0 0 0 0 17.129-13.869 31.020-30.99 31.054h-186.207c-17.125-0.035-30.993-13.925-30.993-31.054 0 0 0 0 0 0v0zM574.017 215.367v294.772c0 17.151 13.903 31.054 31.054 31.054v0c17.151 0 31.054-13.903 31.054-31.054v0-294.772c0-17.151-13.903-31.054-31.054-31.054v0c-17.082 0.034-30.924 13.855-30.993 30.926v0.007zM325.827 215.367v294.772c0 17.151 13.903 31.054 31.054 31.054v0c0 0 0 0 0 0 17.117 0 30.993-13.876 30.993-30.993 0-0.021 0-0.043 0-0.064v0.003-294.772c0-0.018 0-0.039 0-0.061 0-17.117-13.876-30.993-30.993-30.993 0 0 0 0 0 0v0c0 0 0 0 0 0-17.108 0-30.985 13.834-31.054 30.926v0.007z" />
<glyph unicode="&#xe906;" glyph-name="dots-v" d="M398.222 49.778c0 62.838 50.94 113.778 113.778 113.778v0c62.838 0 113.778-50.94 113.778-113.778v0c0-62.838-50.94-113.778-113.778-113.778v0c-62.838 0-113.778 50.94-113.778 113.778v0zM398.222 448c0 62.838 50.94 113.778 113.778 113.778v0c62.838 0 113.778-50.94 113.778-113.778v0c0-62.838-50.94-113.778-113.778-113.778v0c-62.838 0-113.778 50.94-113.778 113.778v0zM398.222 846.222c0 62.838 50.94 113.778 113.778 113.778v0c62.838 0 113.778-50.94 113.778-113.778v0c0-62.838-50.94-113.778-113.778-113.778v0c-62.838 0-113.778 50.94-113.778 113.778v0z" />
<glyph unicode="&#xe907;" glyph-name="edit" d="M122.137-64.076c-67.42 0.086-122.051 54.718-122.137 122.129v779.809c0.129 67.387 54.744 121.976 122.129 122.062h389.984c21.518-0.043 38.945-17.497 38.945-39.020 0-0.027 0-0.053 0-0.080v0.004c0 0 0 0 0 0 0-21.524-17.427-38.977-38.94-39.020h-389.98c0 0 0 0 0 0-24.285 0-43.978-19.666-44.021-43.941v-779.805c0.043-24.295 19.726-43.978 44.017-44.021h779.956c24.238 0.043 43.87 19.702 43.87 43.945 0 0.027 0 0.053 0 0.080v-0.004 389.749c0 0.023 0 0.049 0 0.076 0 21.592 17.504 39.096 39.096 39.096 0.027 0 0.053 0 0.080 0h-0.004c0 0 0 0 0 0 21.592 0 39.096-17.504 39.096-39.096 0-0.027 0-0.053 0-0.080v0.004-389.749c-0.086-67.393-54.674-122.008-122.049-122.137h-0.012zM342.243 195.883c-21.494 0.129-38.869 17.583-38.869 39.095 0 0.027 0 0.054 0 0.081v-0.004 149.338c0 0.033 0 0.071 0 0.11 0 10.729 4.407 20.429 11.51 27.388l0.007 0.006 459.834 460.061c26.315 26.399 62.714 42.733 102.928 42.733 0.121 0 0.242 0 0.362 0h-0.019c0.080 0 0.174 0 0.268 0 40.214 0 76.613-16.334 102.924-42.729l0.004-0.004 1.288-1.364c25.657-26.353 41.48-62.391 41.48-102.126 0-40.266-16.249-76.737-42.549-103.213l0.008 0.008-459.228-459.834c-6.977-7.11-16.687-11.517-27.426-11.517-0.027 0-0.055 0-0.082 0h0.004zM830.035 816.648l-448.848-448.317v-94.785l96.68-1.364 450.515 450.666c10.798 12.014 17.401 27.987 17.401 45.502 0 18.833-7.634 35.882-19.977 48.223v0l-1.288 1.212c-12.055 11.582-28.461 18.715-46.532 18.715-0.023 0-0.046 0-0.069 0h0.004c-0.040 0-0.087 0-0.134 0-18.661 0-35.55-7.589-47.749-19.848l-0.003-0.003z" />
<glyph unicode="&#xe908;" glyph-name="envelope" d="M17.329 792.3c19.608 29.976 53.008 49.514 90.974 49.546h795.574c0.019 0 0.042 0 0.065 0 38.014 0 71.459-19.563 90.817-49.171l0.254-0.415-468.362-324.135c-5.737-4.030-12.867-6.44-20.559-6.44s-14.822 2.41-20.674 6.516l0.115-0.077zM1012.224 716.327v-559.458c0-0.012 0-0.026 0-0.039 0-59.854-48.499-108.381-108.343-108.426h-795.574c-59.831 0.067-108.308 48.585-108.308 108.426 0 0.014 0 0.028 0 0.042v-0.002 559.458l444.377-307.633c17.237-12.073 38.643-19.292 61.735-19.292s44.499 7.219 62.085 19.524l-0.35-0.232z" />
<glyph unicode="&#xe909;" glyph-name="eye" horiz-adv-x="1432" d="M212.643 142.719c-56.657 48.196-106.343 101.786-149.185 160.675l-1.824 2.632c-33.986 38.028-56.457 86.996-61.558 141.021l-0.076 0.99c5.089 55.921 27.528 105.809 61.816 145.087l-0.258-0.301c44.53 61.582 94.284 115.144 149.83 162.062l1.329 1.094c133.226 120.65 308.71 196.825 501.833 203.978l1.432 0.042c194.59-7.199 370.103-83.403 504.014-204.696l-0.674 0.601c56.874-48.012 106.627-101.574 149.363-160.553l1.797-2.604c34.030-38.977 56.469-88.866 61.485-143.792l0.073-0.994c-5.089-55.921-27.528-105.809-61.816-145.087l0.258 0.301c-44.494-61.636-94.252-115.227-149.831-162.138l-1.329-1.093c-133.257-120.644-308.762-196.816-501.905-203.978l-1.435-0.042c-194.952 7.755-370.508 84.936-503.922 207.322l0.582-0.527zM145.161 365.035c39.751-54.359 83.848-101.763 132.9-143.52l1.164-0.966c115.35-105.982 267.388-173.652 435.045-181.986l1.637-0.065c169.082 7.775 321.21 74.573 437.567 180.099l-0.584-0.522c50.254 42.431 94.249 89.711 132.102 141.746l1.587 2.29c17.783 24.675 32.385 53.196 42.347 83.811l0.617 2.19c-10.605 32.777-25.205 61.27-43.597 86.853l0.633-0.926c-39.44 54.325-83.436 101.605-132.508 143.064l-1.182 0.973c-115.738 105.129-267.858 172.052-435.426 179.894l-1.557 0.058c-169.068-7.95-321.126-74.864-437.41-180.468l0.577 0.516c-50.243-42.443-94.236-89.721-132.101-141.747l-1.588-2.289c-17.727-24.641-32.323-53.104-42.337-83.644l-0.627-2.208c11.741-31.781 26.176-59.251 43.629-84.473l-0.815 1.246zM408.715 448.037c0.383 169.628 137.79 307.035 307.381 307.417h0.036c169.645-0.341 307.077-137.773 307.417-307.385v-0.032c-0.298-169.662-137.756-307.119-307.389-307.417h-0.028c-169.586 0.383-306.959 137.756-307.342 307.306v0.037zM511.138 448.037c-0.001-0.245-0.002-0.536-0.002-0.826 0-112.677 91.343-204.020 204.020-204.020 0.264 0 0.528 0.001 0.793 0.002h-0.041c0.223-0.001 0.487-0.001 0.751-0.001 112.677 0 204.020 91.343 204.020 204.020 0 0.291-0.001 0.581-0.002 0.871v-0.045c0.001 0.223 0.001 0.487 0.001 0.751 0 112.677-91.343 204.020-204.020 204.020-0.264 0-0.528-0.001-0.792-0.002h0.041c-0.201 0.001-0.439 0.001-0.676 0.001-112.677 0-204.020-91.343-204.020-204.020 0-0.29 0.001-0.581 0.002-0.871v0.045z" />
<glyph unicode="&#xe90a;" glyph-name="lines-h" d="M334.62 126.635v113.778h371.769v-113.778zM185.913 386.901v113.778h668.103v-113.778zM0 647.111v113.778h1003.748v-113.778z" />
<glyph unicode="&#xe90b;" glyph-name="logout" horiz-adv-x="1040" d="M927.744 841.495h-277.783v6.516c0 0.001 0 0.002 0 0.003 0 61.849-50.139 111.988-111.988 111.988-5.087 0-10.095-0.339-15.003-0.996l0.574 0.063-425.937-55.296c-55.28-7.51-97.455-54.336-97.606-111.042v-689.494c0.161-56.764 42.406-103.612 97.167-110.994l0.578-0.064 425.984-55.249c4.298-0.593 9.265-0.931 14.31-0.931 0.042 0 0.083 0 0.125 0h-0.006c61.779 0.106 111.822 50.199 111.849 111.986v6.472h277.783c61.818 0.079 111.909 50.171 111.988 111.981v563.068c-0.079 61.818-50.171 111.909-111.981 111.988h-0.008zM575.302 47.988c0-0.012 0-0.025 0-0.039 0-11.111-4.903-21.076-12.663-27.851l-0.044-0.037c-6.414-5.795-14.957-9.341-24.329-9.341-1.795 0-3.559 0.13-5.285 0.381l0.196-0.023-425.937 55.11c-18.465 2.392-32.583 18.020-32.583 36.944 0 0.103 0 0.205 0.001 0.308v-0.016 689.292c-0.001 0.087-0.001 0.189-0.001 0.292 0 18.925 14.118 34.552 32.396 36.925l0.187 0.020 425.937 55.017c1.477 0.207 3.182 0.326 4.916 0.326 0.023 0 0.046 0 0.068 0h-0.004c20.565 0 37.236-16.671 37.236-37.236v0zM965.073 166.447c0-20.565-16.671-37.236-37.236-37.236v0h-277.876v282.159h120.32l-38.26-34.257c-7.69-6.885-12.507-16.844-12.507-27.927 0-20.673 16.759-37.433 37.433-37.433 9.59 0 18.338 3.606 24.961 9.537l-0.036-0.031 111.057 99.421c0.279 0 0.326 0.559 0.605 0.838 2.659 3.393 5.507 7.336 8.208 11.386l0.449 0.716c2.005 4.38 3.174 9.501 3.174 14.895s-1.169 10.515-3.267 15.123l0.093-0.229c-0.76 1.246-1.481 2.293-2.253 3.301l0.065-0.089c-1.801 3.41-3.971 6.338-6.517 8.891l0.001-0.001c-0.279 0-0.326 0.605-0.605 0.838l-111.057 99.421c-6.583 5.89-15.322 9.49-24.902 9.49-20.665 0-37.417-16.752-37.417-37.417 0-11.085 4.82-21.044 12.479-27.896l0.036-0.032 38.26-34.257h-120.273v281.181h277.783c20.565 0 37.236-16.671 37.236-37.236v0-563.2z" />
<glyph unicode="&#xe90c;" glyph-name="notification" horiz-adv-x="775" d="M258.207 27.295c-1.34 3.504-2.116 7.556-2.116 11.79 0 14.641 9.279 27.115 22.278 31.861l0.236 0.075c3.452 1.294 7.442 2.044 11.607 2.044 14.671 0 27.17-9.296 31.929-22.32l0.075-0.236c9.632-26.463 34.57-45.021 63.843-45.021 0.112 0 0.224 0 0.337 0.001h-0.017c0.069 0 0.15 0 0.232 0 29.265 0 54.196 18.559 63.666 44.549l0.15 0.471c4.834 13.259 17.334 22.556 32.005 22.556 4.165 0 8.155-0.749 11.842-2.12l-0.235 0.077c13.25-4.932 22.518-17.472 22.518-32.178 0-4.141-0.735-8.111-2.082-11.786l0.076 0.238c-19.168-53.424-69.239-91.011-128.132-91.333h-0.039c-58.952 0.263-109.051 37.875-127.873 90.381l-0.298 0.952zM102.712 102.379c-0.267-0.003-0.583-0.004-0.899-0.004-30.032 0-56.977 13.212-75.342 34.14l-0.098 0.114c-16.374 18.483-26.373 42.94-26.373 69.732 0 3.304 0.152 6.573 0.45 9.8l-0.031-0.414c2.74 32.69 34.25 73.6 70.898 121.359 2.778 4.034 6.812 8.144 9.552 12.254v231.835c0.065 86.674 36.097 164.92 93.976 220.629l0.098 0.094c46.748 45.963 108.513 76.783 177.273 84.437l1.36 0.123v39.502c-0.003 0.16-0.004 0.348-0.004 0.537 0 18.622 15.096 33.717 33.717 33.717 0.189 0 0.377-0.002 0.565-0.005h-0.028c0.16 0.003 0.348 0.004 0.537 0.004 18.622 0 33.717-15.096 33.717-33.717 0-0.189-0.002-0.377-0.005-0.565v0.028-39.502c154.568-20.015 272.749-150.824 272.749-309.235 0-0.59-0.002-1.18-0.005-1.77v0.091-224.985c3.386-3.659 6.53-7.661 9.336-11.906l0.216-0.348c36.8-47.76 68.158-88.555 70.86-121.321 0.282-2.887 0.443-6.24 0.443-9.632 0-26.698-9.965-51.069-26.378-69.596l0.096 0.11c-18.596-20.116-44.44-33.295-73.357-35.371l-0.357-0.021zM219.999 752.787c-44.62-43.339-72.307-103.902-72.307-170.931 0-0.313 0.001-0.626 0.002-0.938v0.048-240.055c0-13.586-5.442-20.398-24.546-44.944-21.583-25.011-40.648-53.217-56.193-83.527l-1.119-2.403c-0.231-1.409-0.363-3.033-0.363-4.688 0-8.259 3.289-15.75 8.628-21.234l-0.007 0.007c5.227-6.768 13.343-11.085 22.469-11.085 1.188 0 2.359 0.073 3.509 0.215l-0.138-0.014h571.519c0.129-0.002 0.282-0.003 0.434-0.003 9.989 0 19.002 4.174 25.392 10.873l0.013 0.014c5.222 6.079 8.401 14.045 8.401 22.753 0 1.114-0.052 2.215-0.154 3.302l0.011-0.139c-16.257 32.259-35.347 60.052-57.632 84.923l0.32-0.363c-19.028 24.546-24.546 31.358-24.546 45.020v234.537c0.003 0.434 0.004 0.947 0.004 1.46 0 130.048-101.608 236.364-229.767 243.891l-0.664 0.031h-8.258c-0.217 0.001-0.474 0.001-0.731 0.001-63.921 0-121.894-25.464-164.33-66.801l0.051 0.050z" />
<glyph unicode="&#xe90d;" glyph-name="plus-sign" d="M153.584 960c-84.822 0-153.584-68.762-153.584-153.584v0-716.832c0-84.822 68.762-153.584 153.584-153.584v0h716.832c84.822 0 153.584 68.762 153.584 153.584v0 716.832c0 84.822-68.762 153.584-153.584 153.584v0zM511.977 140.809c-28.266 0-51.179 22.914-51.179 51.179v0 204.809h-204.672c-28.278 0-51.202 22.924-51.202 51.202s22.924 51.202 51.202 51.202h204.809v204.672c0 28.278 22.924 51.202 51.202 51.202s51.202-22.924 51.202-51.202v-204.809h204.809c28.278 0 51.202-22.924 51.202-51.202s-22.924-51.202-51.202-51.202h-204.946v-204.809c-0.078-28.207-22.962-51.042-51.179-51.042 0 0 0 0 0 0v0z" />
<glyph unicode="&#xe90e;" glyph-name="popup-cross" d="M21.425 938.575c13.239 13.223 31.521 21.401 51.712 21.401s38.473-8.178 51.713-21.402l387.229-387.15 387.151 387.151c13.034 12.177 30.595 19.654 49.902 19.654 40.414 0 73.177-32.762 73.177-73.177 0-19.307-7.477-36.867-19.693-49.944l0.039 0.042-387.23-387.23 387.151-387.151c12.177-13.034 19.654-30.595 19.654-49.902 0-40.414-32.762-73.177-73.177-73.177-19.307 0-36.867 7.477-49.944 19.693l0.042-0.039-387.072 387.23-387.151-387.151c-13.034-12.177-30.595-19.654-49.902-19.654-40.414 0-73.177 32.762-73.177 73.177 0 19.307 7.477 36.867 19.693 49.944l-0.039-0.042 387.072 387.072-387.151 387.151c-13.247 13.243-21.441 31.54-21.441 51.751s8.194 38.508 21.441 51.751v0z" />
<glyph unicode="&#xe90f;" glyph-name="clock" d="M0 447.973c0.332 282.632 229.345 511.664 511.938 512.027h0.035c282.651-0.332 511.694-229.376 512.027-511.995v-0.032c-0.302-282.663-229.364-511.724-511.997-512.027h-0.029c-282.628 0.363-511.641 229.395-511.973 511.995v0.032zM102.32 447.973c0.272-226.136 183.517-409.381 409.627-409.653h0.026c226.136 0.272 409.381 183.517 409.653 409.627v0.026c-0.272 226.136-183.517 409.381-409.627 409.653h-0.026c-226.124-0.302-409.351-183.53-409.653-409.624v-0.029zM634.705 260.448l-158.397 141.973c-15.946 14.405-15.468 63.784-15.468 68.302v223.244c0 28.251 22.887 51.156 51.131 51.187h0.003c28.27 0 51.187-22.917 51.187-51.187v0-223.244c-0.076-2.871-0.382-5.617-0.901-8.288l0.051 0.315 140.644-126.133c10.449-9.41 16.989-22.985 16.989-38.087 0-13.144-4.954-25.131-13.098-34.196l0.042 0.047c-9.384-10.459-22.944-17.009-38.034-17.009-0.027 0-0.054 0-0.082 0h0.004c-0.013 0-0.028 0-0.043 0-13.109 0-25.059 4.964-34.072 13.115l0.044-0.039z" />
<glyph unicode="&#xe910;" glyph-name="search-sign" d="M778.864 527.343v-0.003c0 0.020 0 0.040 0 0.061 0 191.141-154.95 346.092-346.092 346.092-0.020 0-0.040 0-0.057 0v0c-191.173 0-346.149-154.976-346.149-346.149s154.976-346.149 346.149-346.149c191.173 0 346.149 154.976 346.149 346.149zM709.554 194.838c-74.429-62.283-171.183-100.106-276.771-100.106-238.95 0-432.657 193.707-432.657 432.657s193.707 432.657 432.657 432.657c238.95 0 432.657-193.707 432.657-432.657 0-105.588-37.823-202.342-100.66-277.451l0.554 0.681c5.978-2.305 11.079-5.675 15.305-9.917l230.805-230.805c8.519-7.927 13.831-19.202 13.831-31.717 0-23.905-19.378-43.283-43.283-43.283-12.515 0-23.79 5.312-31.693 13.804l-0.024 0.026-230.804 230.804c-4.243 4.228-7.613 9.329-9.817 15.011l-0.101 0.295z" />
<glyph unicode="&#xe911;" glyph-name="success" d="M512 960c-282.77 0-512-229.23-512-512s229.23-512 512-512c282.77 0 512 229.23 512 512v0c0 282.77-229.23 512-512 512v0zM802.627 538.246l-307.208-281.594c-9.080-8.356-21.249-13.479-34.615-13.479-14.141 0-26.943 5.735-36.207 15.005l-153.605 153.605c-9.252 9.268-14.974 22.064-14.974 36.196 0 28.296 22.938 51.234 51.234 51.234 14.164 0 26.985-5.747 36.259-15.037l118.745-118.745 271.076 248.472c9.081 8.347 21.246 13.463 34.605 13.463 28.281 0 51.207-22.926 51.207-51.207 0-14.921-6.382-28.351-16.564-37.71l-0.037-0.033z" />
<glyph unicode="&#xe912;" glyph-name="user" d="M404.261-66.267h-151.625c-78.795 0.042-142.66 63.906-142.702 142.698v181.252c-0.137 1.163-0.216 2.511-0.216 3.877s0.078 2.713 0.231 4.038l-0.015-0.162c1.664 39.291 23.424 73.152 55.207 91.729l0.528 0.285c40.315 23.442 87.014 44.253 135.999 59.957l5.093 1.41h7.826c62.070 19.721 133.46 31.086 207.504 31.086 130.254 0 252.294-35.169 357.141-96.53l-3.346 1.81c32.358-18.78 54.147-52.649 55.728-91.724l0.007-0.217c1.177-1.604 2.295-3.425 3.262-5.335l0.103-0.224v-181.248c-0.008-39.409-15.965-75.089-41.767-100.939l0.002 0.002c-25.86-25.781-61.533-41.731-100.931-41.765h-0.006zM522.459 508.489c-61.785 0.91-117.427 26.474-157.671 67.266l-0.025 0.025c-40.229 40.768-65.132 96.745-65.316 158.538v0.036c0.028 62.493 25.407 119.053 66.409 159.959l0.004 0.004c40.852 40.68 97.197 65.83 159.416 65.83 0.295 0 0.591-0.001 0.886-0.002h-0.046c62.507-0.243 118.987-25.847 159.723-67.051l0.021-0.021c40.29-40.795 65.176-96.885 65.176-158.786 0-0.568-0.002-1.136-0.006-1.703l0.001 0.087c-0.568-62.492-26.403-118.842-67.767-159.416l-0.036-0.035c-40.669-39.891-96.44-64.512-157.962-64.512-0.009 0-0.019 0-0.028 0h0.001z" />
<glyph unicode="&#xe913;" glyph-name="calendar" horiz-adv-x="1025" d="M845.496-64h-667.518c-98.301 0.033-177.978 79.73-177.978 178.036v667.986c0.067 98.268 79.71 177.911 177.971 177.978h667.525c0.282 0.002 0.615 0.003 0.949 0.003 49.026 0 93.435-19.771 125.688-51.775l-0.011 0.011c32.432-32.255 52.536-76.878 52.639-126.196v-668.006c-0.065-49.363-20.177-94.016-52.63-126.266l-0.009-0.009c-32.267-31.992-76.698-51.761-125.746-51.761-0.021 0-0.043 0-0.064 0h0.003zM929.894 30.048c21.655 21.445 35.070 51.177 35.093 84.042v463.635h-905.27v-463.631c0.033-65.28 52.928-118.195 118.197-118.262h667.525c0.369-0.004 0.804-0.007 1.24-0.007 32.434 0 61.816 13.070 83.166 34.23l-0.009-0.009zM59.774 782.022v-144.523h905.27v144.523c-0.125 32.815-13.517 62.478-35.087 83.924l-0.006 0.006c-21.476 21.224-51.011 34.335-83.608 34.335-0.278 0-0.555-0.001-0.832-0.003h-667.475c-65.287-0.067-118.195-52.974-118.262-118.255v-0.006zM316.008 737.221c-16.506 0-29.887 13.381-29.887 29.887v0c0.033 16.481 13.401 29.829 29.887 29.829 0 0 0 0 0 0h391.867c0 0 0 0 0 0 16.486 0 29.854-13.348 29.887-29.825v-0.003c0-16.506-13.381-29.887-29.887-29.887v0z" />
<glyph unicode="&#xe914;" glyph-name="email" horiz-adv-x="912" d="M624.955 372.514c0.074 0 0.162-0.001 0.249-0.001 23.301 0 42.19 18.889 42.19 42.19 0 0.088 0 0.175-0.001 0.263v-0.014 277.642c0 0.074 0.001 0.162 0.001 0.249 0 23.301-18.889 42.19-42.19 42.19-0.088 0-0.175 0-0.263-0.001h0.014c-23.315-0.304-42.135-19.124-42.439-42.41v-0.029c-30.529 16.806-66.911 26.693-105.601 26.693-60.356 0-115.093-24.061-155.141-63.114l0.046 0.045c-51.615-50.66-83.904-120.855-84.876-198.594l-0.002-0.183c-0.010-0.834-0.015-1.818-0.015-2.804 0-70.296 28.259-133.991 74.036-180.346l-0.026 0.027c62.468-60.308 147.449-97.653 241.15-98.245l0.116-0.001c3.866-0.163 8.402-0.256 12.96-0.256 87.578 0 167.156 34.253 226.068 90.093l-0.148-0.139c74.862 73.634 121.249 176.018 121.249 289.236 0 98.724-35.271 189.21-93.899 259.544l0.528-0.652c-72.164 84.765-177.056 139.8-294.895 145.42l-0.935 0.036c-6.013 0.247-13.070 0.387-20.159 0.387-139.177 0-265.707-54.144-359.677-142.518l0.272 0.253c-89.087-89.189-144.181-212.348-144.181-348.375 0-11.376 0.385-22.662 1.144-33.846l-0.082 1.513c2.939-146.854 68.256-277.889 170.454-368.111l0.544-0.471c97.829-82.271 225.191-132.257 364.227-132.257 4.1 0 8.19 0.043 12.269 0.13l-0.609-0.010c25.493 0 52.129 1.242 81.25 3.628 22.006 2.349 38.996 20.816 38.996 43.25 0 1.411-0.067 2.807-0.199 4.184l0.014-0.175c-2.782 22.049-21.418 38.931-43.998 38.931-1.148 0-2.285-0.044-3.411-0.129l0.15 0.009c-22.624-3.632-48.706-5.707-75.273-5.707-121.579 0-233.008 43.456-319.602 115.683l0.799-0.648c-84.493 75.364-137.904 184.026-139.489 305.19l-0.003 0.28c-0.629 8.471-0.988 18.349-0.988 28.311 0 111.408 44.84 212.344 117.457 285.744l-0.036-0.036c76.814 73.102 180.986 118.074 295.661 118.074 6.893 0 13.749-0.163 20.562-0.484l-0.963 0.036c94.23-3.902 177.653-47.096 234.843-113.521l0.36-0.428c45.427-54.597 72.999-125.45 72.999-202.743 0-89.236-36.751-169.888-95.943-227.646l-0.064-0.063c-46.614-40.312-107.822-64.87-174.766-64.87-71.402 0-136.279 27.939-184.295 73.48l0.119-0.112c-30.715 30.98-49.695 73.638-49.695 120.728 0 0.185 0 0.37 0.001 0.555v-0.029c0.865 54.256 23.528 103.054 59.589 138.157l0.044 0.043c24.501 24.096 58.135 38.973 95.243 38.973 35.87 0 68.494-13.901 92.778-36.61l-0.077 0.071c8.36-10.611 13.409-24.172 13.409-38.911 0-0.804-0.015-1.604-0.045-2.4l0.003 0.115v-141.877c-0.008-0.3-0.012-0.652-0.012-1.006 0-22.889 18.556-41.445 41.445-41.445 0.354 0 0.707 0.004 1.058 0.013l-0.052-0.001z" />
<glyph unicode="&#xe915;" glyph-name="password-lock" horiz-adv-x="1634" d="M131.594-50.195l-22.463 34.144c-3.151 4.785-5.026 10.653-5.026 16.959 0 2.18 0.224 4.307 0.65 6.36l-0.035-0.202c1.746 8.157 6.51 14.976 13.041 19.371l0.111 0.070 159.285 104.556c-105.055 81.695-194.12 177.671-265.984 286.046l-2.759 4.425c-5.328 7.869-8.505 17.572-8.505 28.018s3.178 20.149 8.619 28.196l-0.113-0.178c203.64 306.645 498.277 482.593 808.679 482.593 182.322-2.183 350.681-60.165 489.28-157.616l-2.765 1.843 156.263 102.514c4.713 3.123 10.501 4.983 16.722 4.983 0.037 0 0.074 0 0.111 0h-0.006c0.003 0 0.006 0 0.009 0 10.667 0 20.064-5.438 25.57-13.693l0.070-0.112 22.3-34.063c3.151-4.785 5.026-10.653 5.026-16.959 0-2.18-0.224-4.307-0.65-6.36l0.035 0.202c-1.746-8.157-6.51-14.976-13.041-19.371l-0.111-0.070-1341.753-879.908c-4.699-3.173-10.49-5.065-16.723-5.065-0.037 0-0.073 0-0.11 0h0.006c-0.188-0.004-0.41-0.007-0.632-0.007-10.398 0-19.573 5.237-25.032 13.217l-0.067 0.104zM510.448 449.389c0.367-51.909 13.914-100.575 37.454-142.921l-0.778 1.525 506.445 332.62c-55.818 70.173-141.11 114.834-236.843 115.094h-0.043c-169.001-0.279-305.922-137.228-306.154-306.213v-0.023zM471.811 14.091l230.841 151.444c33.823-14.129 73.116-22.374 114.324-22.463h0.035c165.934 0.305 300.868 132.606 305.41 297.484l0.009 0.42 346.833 227.574c56.825-57.031 108.231-119.54 153.331-186.641l2.85-4.501c5.328-7.869 8.505-17.572 8.505-28.018s-3.178-20.149-8.619-28.196l0.113 0.178c-203.558-306.645-498.277-482.593-808.679-482.593-125.141 0.589-243.662 28.306-350.183 77.564l5.229-2.169z" />
<glyph unicode="&#xe916;" glyph-name="password-unlock" horiz-adv-x="1634" d="M1634.168 443.22c0 0.654 0 1.307 0 2.043v0.98c0 0.49 0 0.98 0 1.471s0 1.144 0 1.716v0c-2.153 13.222-8.273 24.741-17.078 33.582l0.002-0.002c-51.88 65.42-103.93 123.788-159.101 179.037l0.023-0.023c-115.098 128.259-263.215 224.673-431.021 276.018l-6.751 1.777c-60.688 12.752-130.422 20.053-201.861 20.053-50.621 0-100.386-3.666-149.044-10.747l5.54 0.662c-95.86-18.837-181.092-52.437-257.808-98.722l3.544 1.984c-122.053-71.974-226.9-156.638-317.865-254.394l-0.782-0.85c-18.874-18.71-67.896-94.123-84.972-114.386-10.587-11.197-17.097-26.347-17.097-43.017s6.509-31.82 17.124-43.047l-0.028 0.030c52.127-61.768 121.413-133.178 171.579-198.051 121.909-116.266 273.268-202.726 441.718-247.043l7.083-1.584c47.658-9.314 102.46-14.642 158.506-14.642s110.848 5.329 163.927 15.507l-5.42-0.865c106.341 20.633 200.924 53.512 288.754 97.823l-6.303-2.882c122.531 86.679 229.118 183.279 323.002 291.222l1.854 2.178c18.874 18.71 37.584 37.747 54.742 58.092 8.799 8.842 14.917 20.359 17.028 33.226l0.048 0.355c0 0.572 0 1.144 0 1.716s0 0.98 0 1.471v1.226c0 0.654 0 1.307 0 1.961s0 2.043 0 3.023 0.654 2.124 0.654 3.105zM817.125 125.881c-173.637 0-314.398 140.761-314.398 314.398s140.761 314.398 314.398 314.398c173.637 0 314.398-140.761 314.398-314.398v0c0-173.637-140.761-314.398-314.398-314.398v0z" />
<glyph unicode="&#xe917;" glyph-name="password" horiz-adv-x="751" d="M716.82 584.513h-68.307v102.663c0 150.816-122.261 273.077-273.077 273.077s-273.077-122.261-273.077-273.077v0-102.663h-68.206c-18.822-0.057-34.068-15.285-34.154-34.095v-580.315c0.057-18.839 15.314-34.096 34.148-34.154h682.672c18.839 0.057 34.096 15.314 34.154 34.148v580.312c-0.086 18.818-15.332 34.046-34.148 34.103h-0.005zM170.667 687.176c-0.016 0.957-0.025 2.086-0.025 3.217 0 113.119 91.701 204.82 204.82 204.82s204.82-91.701 204.82-204.82c0-1.131-0.009-2.26-0.027-3.387l0.002 0.17v-102.663h-409.59zM682.667 4.257h-614.41v512h614.41zM409.843 277.081v-34.154c0.016-0.392 0.025-0.851 0.025-1.313 0-18.862-15.291-34.154-34.154-34.154s-34.154 15.291-34.154 34.154c0 0.462 0.009 0.922 0.027 1.379l-0.002-0.066v34.154c0.726 18.289 15.728 32.84 34.128 32.84s33.403-14.551 34.126-32.775l0.002-0.066zM546.255 277.081v-34.154c0.016-0.392 0.025-0.851 0.025-1.313 0-18.862-15.291-34.154-34.154-34.154s-34.154 15.291-34.154 34.154c0 0.462 0.009 0.922 0.027 1.379l-0.002-0.066v34.154c0.726 18.289 15.728 32.84 34.128 32.84s33.403-14.551 34.126-32.775l0.002-0.066zM273.43 277.081v-34.154c0.016-0.392 0.025-0.851 0.025-1.313 0-18.862-15.291-34.154-34.154-34.154s-34.154 15.291-34.154 34.154c0 0.462 0.009 0.922 0.027 1.379l-0.002-0.066v34.154c0.726 18.289 15.728 32.84 34.128 32.84s33.403-14.551 34.126-32.775l0.002-0.066z" />
<glyph unicode="&#xe918;" glyph-name="uesr-outline" horiz-adv-x="943" d="M140.589-64c-39.761 0.356-75.421 17.62-100.189 44.941l-0.103 0.115c-24.997 27.502-40.301 64.205-40.301 104.482 0 0.369 0.001 0.738 0.004 1.107v-0.057c-0.006 0.687-0.010 1.498-0.010 2.311 0 72.612 27.565 138.785 72.802 188.627l-0.208-0.233c44.245 48.874 107.698 79.653 178.352 80.353l0.126 0.001h441.585c70.715-0.739 134.099-31.512 178.111-80.145l0.186-0.209c45.028-49.617 72.593-115.798 72.593-188.417 0-0.804-0.003-1.608-0.010-2.411l0.001 0.123c0.002-0.312 0.004-0.681 0.004-1.050 0-40.277-15.304-76.98-40.415-104.61l0.114 0.127c-24.871-27.436-60.531-44.7-100.228-45.056h-0.064zM117.037 236.574c-35.218-39.393-56.744-91.675-56.744-148.984 0-0.373 0.001-0.746 0.003-1.119v0.057c-0.002-0.215-0.003-0.469-0.003-0.723 0-24.651 9.255-47.141 24.48-64.184l-0.082 0.094c13.72-15.53 33.614-25.333 55.802-25.539h662.624c22.24 0.221 42.148 10.019 55.83 25.461l0.069 0.079c15.144 16.99 24.397 39.516 24.397 64.204 0 0.214-0.001 0.429-0.002 0.643v-0.033c0.001 0.298 0.002 0.65 0.002 1.003 0 57.319-21.551 109.605-56.992 149.197l0.188-0.214c-32.972 37.075-80.67 60.434-133.832 60.837h-441.716c-53.26-0.334-101.008-23.658-133.866-60.537l-0.158-0.18zM276.058 749.116c-0.076 2.078-0.119 4.52-0.119 6.971 0 109.794 86.729 199.331 195.415 203.839l0.408 0.013c109.089-4.488 195.826-94.012 195.826-203.795 0-2.472-0.044-4.933-0.131-7.384l0.010 0.355c0.078-2.113 0.123-4.595 0.123-7.087 0-109.771-86.745-199.282-195.425-203.724l-0.402-0.013c-109.089 4.487-195.828 94.011-195.828 203.795 0 2.493 0.045 4.976 0.133 7.447l-0.010-0.358zM336.294 749.116c-0.11-2.101-0.172-4.562-0.172-7.037 0-76.545 59.814-139.119 135.252-143.533l0.39-0.018c75.859 4.433 135.699 67.034 135.699 143.611 0 2.454-0.061 4.894-0.183 7.318l0.014-0.341c0.108 2.083 0.169 4.523 0.169 6.977 0 76.577-59.84 139.178-135.309 143.593l-0.39 0.018c-75.831-4.466-135.636-67.053-135.636-143.608 0-2.434 0.060-4.854 0.18-7.258l-0.013 0.338z" />
<glyph unicode="&#xe919;" glyph-name="arrow-right1" horiz-adv-x="610" d="M50.151-64c-0.002 0-0.005 0-0.008 0-27.697 0-50.151 22.453-50.151 50.151 0 14.33 6.011 27.257 15.648 36.396l0.022 0.021 448.424 425.432-448.424 425.432c-9.659 9.161-15.668 22.087-15.668 36.417 0 27.701 22.456 50.156 50.156 50.156 13.371 0 25.519-5.232 34.511-13.76l-0.022 0.021 525.193-498.266-525.193-498.266c-8.945-8.503-21.071-13.734-34.419-13.734-0.024 0-0.049 0-0.073 0h0.004z" />
<glyph unicode="&#xe91a;" glyph-name="team" horiz-adv-x="1766" d="M1380.723-64h-993.412c-0.618 10.814-1.192 21.628-2.383 34.339-2.009 14.664-3.155 31.61-3.155 48.824 0 27.457 2.917 54.233 8.459 80.035l-0.448-2.492c19.543 58.027 67.925 101.411 127.658 113.515l1.092 0.185 30.897 10.814c141.594 43.873 217.247 68.59 242.317 126.411l7.945 14.566-0.618 18.406c-2.14 1.607-3.953 3.504-5.42 5.656l-0.053 0.082c-8.577 9.201-16.783 19.115-24.388 29.498l-0.638 0.913c-56.251 80.97-90.949 180.661-93.91 288.281l-0.016 0.734c0 123.321 84.215 254.19 209.876 254.19 98.295 0 203.829-105.534 203.829-263.018-3.924-114.137-46.388-217.655-114.699-298.664l0.602 0.733c-4.414-5.076-9.137-9.534-13.241-13.992l-7.945-7.636 2.383-11.432c17.081-72.386 94.014-97.103 248.32-144.772l31.779-10.814c61.498-13.855 110.78-56.369 133.768-112.445l0.455-1.254h0.618c8.582-30.406 13.516-65.326 13.516-101.397 0-13.519-0.693-26.876-2.045-40.038l0.137 1.65c-0.618-6.93-0.618-14.566-1.192-20.921zM1388.359 127.603c-19.461 56.17-66.981 97.896-125.351 108.775l-1.016 0.157-25.203 7.548c-105.313 30.588-161.633 47.139-176.552 80.331-3.575 11.917-2.472 25.203 32.574 38.003 112.861 32.839 170.063 49.964 183.57 92.248h7.062c-1.985 1.689-3.774 3.464-5.42 5.367l-0.053 0.062c-58.921 64.091-95.853 149.212-98.373 242.918l-0.011 0.503c-0.121 2.533-0.189 5.503-0.189 8.488 0 101.053 78.682 183.728 178.125 190.104l0.558 0.029c86.687 0 174.036-85.054 174.036-205.065-3.769-93.65-43.457-177.357-105.566-238.29l-0.056-0.055c12.006-48.949 77.418-64.927 212.745-104.651 150.422-44.138 124.601-153.291 124.116-226.472zM1.898 127.603c-0.309 73.181-26.483 182.378 124.204 226.472 135.106 39.724 200.651 55.702 212.568 104.651-62.147 60.98-101.788 144.705-105.425 237.676l-0.021 0.668c0 120.011 87.261 205.065 174.036 205.065 100.001-6.404 178.683-89.080 178.683-190.132 0-2.985-0.069-5.955-0.205-8.907l0.015 0.418c-2.531-94.208-39.462-179.33-98.627-243.689l0.244 0.269c-1.679-1.984-3.47-3.761-5.403-5.373l-0.070-0.056h7.062c13.241-42.284 70.621-59.454 183.393-92.248 35.928-5.076 28.601-24.806 32.662-38.003-14.698-33.192-71.062-49.743-176.552-80.331l-25.026-7.548c-59.423-11.028-106.984-52.752-126.149-107.778l-0.35-1.155z" />
<glyph unicode="&#xe91b;" glyph-name="invited" horiz-adv-x="922" d="M137.157 69.509c-1.33 0.798-2.436 1.83-3.294 3.050l-0.023 0.034-0.166 0.298c-82.62 82.812-133.709 197.114-133.709 323.348 0 0.319 0 0.638 0.001 0.957v-0.050c0 0.128 0 0.278 0 0.429 0 116.941 43.723 223.671 115.714 304.732l-0.411-0.471-22.815 22.782-17.609-17.576c-5.245-5.245-12.49-8.489-20.494-8.489v0c-8.008 0.042-15.247 3.304-20.494 8.556v0c-5.241 5.138-8.49 12.292-8.49 20.205 0 0.067 0 0.133 0.001 0.2v-0.010c-0.001 0.076-0.001 0.165-0.001 0.255 0 7.965 3.247 15.172 8.489 20.37l76.274 76.274c5.23 5.278 12.48 8.548 20.493 8.556h0.001c0.008 0 0.018 0 0.027 0 8.028 0 15.292-3.271 20.531-8.554l0.002-0.002c5.258-5.206 8.524-12.416 8.556-20.388v-0.006c0-0.007 0-0.014 0-0.022 0-8.071-3.269-15.379-8.556-20.671v0l-17.642-17.576 22.882-22.882c73.676 65.261 169.156 107.412 274.259 114.335l1.381 0.073v44.636h-47.255c-15.996 0.056-28.946 13.018-28.983 29.013v0.004c0.019 16.013 12.976 28.993 28.978 29.050h152.549c16.029-0.038 29.012-13.021 29.050-29.046v-0.004c-0.038-16.022-13.025-28.998-29.048-29.016h-47.058v-44.503c106.48-7.085 201.942-49.244 276.129-114.899l-0.489 0.424 22.815 22.815-17.609 17.576c-5.267 5.2-8.536 12.414-8.556 20.391v0.004c0 0.020 0 0.043 0 0.066 0 8.037 3.271 15.309 8.554 20.559l0.001 0.001c5.16 5.281 12.353 8.556 20.311 8.556 0.041 0 0.082 0 0.123 0h-0.006c0.029 0 0.062 0 0.096 0 8.006 0 15.248-3.272 20.461-8.553l76.275-76.275c5.282-5.18 8.556-12.391 8.556-20.367 0-0.010 0-0.020 0-0.029v0.002c0-0.020 0-0.043 0-0.066 0-8.037-3.271-15.309-8.554-20.559l-0.001-0.001c-5.223-5.251-12.44-8.514-20.42-8.556h-0.008c-8.012 0.019-15.258 3.286-20.492 8.554l-0.001 0.001-17.642 17.576-22.815-22.815c71.621-80.628 115.37-187.41 115.37-304.411 0-0.098 0-0.196 0-0.294v0.015c-0.283-254.507-206.459-460.765-460.908-461.18h-0.040c-0.343-0.001-0.749-0.001-1.155-0.001-126.142 0-240.364 51.037-323.143 133.587l0.010-0.010zM490.163 15.887v-20.759c103.562 7.542 195.172 53.344 261.829 123.172l0.148 0.156c69.339 71.942 112.054 169.959 112.054 277.952 0 0.272 0 0.543-0.001 0.814v-0.042c0.001 0.255 0.001 0.557 0.001 0.859 0 109.769-44.198 209.216-115.768 281.514l0.033-0.033c-0.89 0.531-1.66 1.112-2.363 1.765l0.008-0.008c-1.062 0.936-1.957 2.031-2.653 3.254l-0.033 0.062c-72.233 71.497-171.631 115.669-281.345 115.669-0.326 0-0.652 0-0.978-0.001h0.051c-0.062 0-0.134 0-0.207 0-101.008 0-193.299-37.322-263.835-98.928l0.473 0.404 14.492-14.492c5.282-5.19 8.556-12.41 8.556-20.394v0c0-0.011 0-0.023 0-0.036 0-8.067-3.27-15.37-8.556-20.657v0c-5.224-5.239-12.446-8.482-20.426-8.489h-0.001c-8 0.020-15.24 3.259-20.495 8.49l-14.557 14.557c-54.887-63.054-90.591-144.102-97.282-233.241l-0.081-1.345h20.693c16.007 0 28.983-12.976 28.983-28.983v0c0-0.010 0-0.021 0-0.033 0-16.007-12.976-28.983-28.983-28.983h-20.693c6.79-90.481 42.49-171.524 97.779-235.074l-0.416 0.489 14.558 14.558c5.201 5.283 12.429 8.556 20.422 8.556 0.002 0 0.004 0 0.006 0v0c0.016 0 0.035 0 0.055 0 8.019 0 15.274-3.272 20.503-8.553l0.002-0.002c5.264-5.202 8.532-12.414 8.556-20.39v-0.005c0-0.020 0-0.043 0-0.066 0-8.037-3.271-15.309-8.554-20.559l-14.559-14.559c63.061-54.884 144.1-90.604 233.231-97.347l1.355-0.082v20.759c0.019 15.999 12.984 28.964 28.981 28.983h0.002c0.030 0 0.065 0 0.1 0 15.997 0 28.974-12.931 29.049-28.91v-0.007zM674.409 142.896l-233.724 233.724c-5.262 5.253-8.527 12.506-8.556 20.521v330.429c0.019 16.013 12.976 28.993 28.978 29.050h5.278c196.15-3.189 353.964-162.829 354.2-359.384v-0.023c0.001-0.265 0.001-0.579 0.001-0.894 0-98.999-40.235-188.601-105.245-253.345l-0.012-0.012c-5.26-5.222-12.496-8.458-20.488-8.489h-0.006c-0.014 0-0.031 0-0.048 0-7.961 0-15.168 3.232-20.379 8.456l-0.001 0.001zM490.163 409.151l203.712-203.712c42.746 51.637 68.678 118.549 68.678 191.517 0 0.067 0 0.134 0 0.201v-0.011c-0.191 156.167-118.975 284.53-271.121 299.877l-1.269 0.104z" />
<glyph unicode="&#xe91c;" glyph-name="injured" horiz-adv-x="806" d="M23.783-63.903c-13.143 0.037-23.783 10.7-23.783 23.848 0 0 0 0 0 0v0 331.246c0.092 99.782 80.956 180.646 180.729 180.738h95.433v76.469c-44.115 42.57-74.453 99.154-83.83 162.567l-0.188 1.549v0.292c-0.332 1.031-0.523 2.217-0.523 3.447 0 0.109 0.002 0.218 0.005 0.327v-0.016c-1.042 7.968-1.653 17.213-1.685 26.595v0.040c0 0.015 0 0.032 0 0.049 0 32.603 7.274 63.507 20.287 91.178l-0.554-1.311c0.053 0.319 0.132 0.602 0.237 0.872l-0.010-0.030 0.227 0.583c0.469 1.237 1.059 2.307 1.776 3.277l-0.026-0.037c18.001 36.441 44.616 66.247 77.281 87.554l0.841 0.514c32.937 21.515 73.267 34.314 116.585 34.314 0.022 0 0.043 0 0.065 0h-0.003c0.058 0 0.126 0 0.194 0 43.723 0 84.401-13.034 118.362-35.43l-0.807 0.5c33.779-22.22 60.508-52.619 77.748-88.445l0.568-1.309c0.871-1.295 1.598-2.788 2.104-4.379l0.034-0.124c11.81-25.772 18.696-55.909 18.696-87.654 0-0.009 0-0.018 0-0.028v0.002c-0.15-20.351-2.777-40.019-7.592-58.81l0.366 1.685c-0.121-1.336-0.42-2.567-0.874-3.72l0.032 0.091-0.292-0.68c-14.107-52.744-41.311-97.923-77.949-133.424l-0.075-0.072v-76.404h92.313c51.959-1.38 98.247-24.548 130.254-60.663l0.164-0.188c5.458-2.854 9.557-7.681 11.394-13.511l0.044-0.163c21.772-29.33 34.906-66.207 35.059-106.145v-331.282c0-13.171-10.677-23.848-23.848-23.848v0zM568.136-16.207h190.621v307.398c-0.014 17.287-3.355 33.789-9.419 48.907l0.314-0.887zM440.343-16.207h74.525l204.683 400.748c-19.825 20.113-46.082 33.837-75.434 37.835l-0.678 0.076zM47.566 294.236v-310.443h340.221l203.971 440.667h-68.044c-29.267-31.529-70.907-51.225-117.147-51.325h-2.416c-45.153 0.971-85.564 20.494-114.058 51.222l-0.094 0.103h-109.26c-72.538-0.036-131.522-58.020-133.169-130.168l-0.003-0.153zM323.696 457.478c20.162-22.136 48.878-36.178 80.882-36.871l0.123-0.002h3.24c32.253 0.251 61.183 14.266 81.244 36.454l0.085 0.096v56.703c-21.149-11.896-46.13-19.608-72.739-21.358l-0.522-0.028v-0.227h-9.526c-30.435 0.168-58.965 8.171-83.72 22.093l0.868-0.449zM242.529 700.492c18.242-78.931 84.018-160.552 164.019-160.552 72.807 0 132.848 67.396 157.052 136.704l-158.77 59.393zM267.543 838.428l307.041-115.059c0.772 6.001 1.219 12.954 1.231 20.009v0.016c0 0.005 0 0.012 0 0.018 0 21.196-3.947 41.47-11.145 60.128l0.387-1.142-294.372 40.438c-1.037-1.653-2.106-3.175-3.111-4.633zM237.409 748.123l85.314 18.728-76.728 28.773c-4.893-14.15-7.979-30.482-8.547-47.452l-0.007-0.276zM314.915 884.763l218.713-30.004c-31.054 35.523-76.452 57.838-127.063 57.838-0.018 0-0.035 0-0.053 0h0.003c-34.163-0.060-65.864-10.551-92.102-28.457l0.566 0.365zM108.871 144.928v81.005c0.018 13.128 10.655 23.765 23.781 23.783h162.012c0.010 0 0.021 0 0.032 0 13.142 0 23.797-10.644 23.815-23.781v-81.007c-0.074-57.837-46.949-104.7-104.783-104.756h-0.005c-57.745 0.092-104.549 46.804-104.788 104.506v0.023zM156.502 144.928c0.037-31.575 25.642-57.157 57.222-57.157v0c31.552 0.037 57.12 25.605 57.157 57.154v57.16h-114.379z" />
<glyph unicode="&#xe91d;" glyph-name="tick-o" d="M0 448c0 282.77 229.23 512 512 512v0c282.77 0 512-229.23 512-512v0c0-282.77-229.23-512-512-512v0c-282.77 0-512 229.23-512 512v0zM66.065 448c0.376-246.132 199.803-445.56 445.899-445.935h0.036c246.125 0.394 445.541 199.811 445.935 445.898v0.038c-0.394 246.125-199.811 445.541-445.898 445.935h-0.038c-246.125-0.394-445.541-199.811-445.935-445.898v-0.038zM447.62 253.902c-9.121 0.002-17.377 3.7-23.354 9.678l-128.826 128.826c-5.946 5.972-9.622 14.209-9.622 23.304s3.676 17.332 9.623 23.305l-0.001-0.001c5.972 5.946 14.209 9.622 23.304 9.622s17.332-3.676 23.305-9.623l102.861-102.861 234.793 293.459c6.104 7.554 15.369 12.345 25.752 12.345 7.773 0 14.918-2.685 20.56-7.177l-0.067 0.052c7.531-6.104 12.304-15.354 12.304-25.719 0-7.787-2.695-14.945-7.203-20.592l0.051 0.066-257.652-322.296c-5.765-7.102-14.292-11.768-23.922-12.35l-0.093-0.004zM447.62 253.902v0z" />
<glyph unicode="&#xe91e;" glyph-name="list" d="M170.703-63.956c-94.144 0.346-170.363 76.596-170.659 170.718v682.536c0.321 94.141 76.526 170.376 170.624 170.747h682.891c94.134-0.37 170.338-76.606 170.659-170.716v-682.538c-0.296-94.151-76.516-170.401-170.626-170.747h-0.033zM85.373 789.297v-682.507c-0.005-0.326-0.007-0.711-0.007-1.097 0-46.572 37.754-84.326 84.326-84.326 0.355 0 0.71 0.002 1.064 0.007l-0.054-0.001h682.856c0.314-0.004 0.684-0.007 1.055-0.007 46.548 0 84.283 37.735 84.283 84.283 0 0.401-0.003 0.802-0.008 1.201l0.001-0.061v682.507c0.005 0.339 0.008 0.74 0.008 1.141 0 46.524-37.715 84.239-84.239 84.239-0.386 0-0.772-0.003-1.157-0.008l0.058 0.001h-682.856c-0.314 0.004-0.684 0.007-1.055 0.007-46.548 0-84.283-37.735-84.283-84.283 0-0.401 0.003-0.802 0.008-1.201l-0.001 0.061zM213.455 234.741c0.025 35.359 28.682 64.016 64.039 64.041h0.002c35.331-0.050 63.954-28.703 63.954-64.041 0 0 0 0 0 0v0c0-35.321-28.633-63.954-63.954-63.954v0c-0.013 0-0.028 0-0.044 0-35.329 0-63.972 28.628-63.997 63.951v0.002zM469.619 192.12c-0.052 0-0.113 0-0.175 0-23.517 0-42.59 19.027-42.665 42.527v0.007c-0.001 0.088-0.001 0.193-0.001 0.297 0 11.801 4.767 22.488 12.48 30.242l-0.002-0.002c7.732 7.71 18.403 12.478 30.187 12.478 0.123 0 0.246-0.001 0.37-0.002h298.591c23.507-0.074 42.534-19.147 42.534-42.665 0-0.061 0-0.123 0-0.184v0.009c-0.074-23.461-19.073-42.46-42.527-42.534h-0.007zM213.455 448.065c0.025 35.326 28.668 63.954 63.997 63.954 0.015 0 0.031 0 0.046 0h-0.002c35.321 0 63.954-28.633 63.954-63.954v0c0 0 0 0 0 0 0-35.338-28.622-63.991-63.949-64.041h-0.005c-35.359 0.025-64.016 28.682-64.041 64.039v0.002zM469.619 405.313c-0.078-0.001-0.171-0.001-0.264-0.001-11.827 0-22.532 4.802-30.272 12.564l-0.001 0.001c-7.709 7.699-12.477 18.34-12.477 30.095 0 0.063 0 0.127 0 0.19v-0.010c0.049 23.502 19.113 42.535 42.621 42.535 0.077 0 0.153 0 0.23-0.001h298.598c23.461-0.074 42.46-19.073 42.534-42.527v-0.007c0-0.039 0-0.085 0-0.131 0-23.517-19.027-42.59-42.527-42.665h-0.007zM213.455 661.433c0.025 35.326 28.668 63.954 63.997 63.954 0.015 0 0.031 0 0.046 0h-0.002c35.321 0 63.954-28.633 63.954-63.954v0c0-0.013 0-0.028 0-0.044 0-35.329-28.628-63.972-63.951-63.997h-0.002c-35.359 0.025-64.016 28.682-64.041 64.039v0.002zM439.256 630.896c-7.71 7.726-12.478 18.39-12.478 30.169 0 0.13 0.001 0.259 0.002 0.388v-0.020c0.074 23.507 19.147 42.534 42.665 42.534 0.061 0 0.123 0 0.184 0h298.601c23.461-0.074 42.46-19.073 42.534-42.527v-0.007c0-0.039 0-0.085 0-0.131 0-23.526-19.022-42.609-42.525-42.708h-298.882c-11.746 0.017-22.38 4.763-30.103 12.435l0.002-0.002z" />
<glyph unicode="&#xe91f;" glyph-name="grid" d="M644.238-64c-42.135 0-76.291 34.157-76.291 76.291v0 303.894c0 42.135 34.157 76.291 76.291 76.291v0h303.936c42.135 0 76.291-34.157 76.291-76.291v-303.894c0-42.135-34.157-76.291-76.291-76.291v0zM644.238 12.291h303.936v303.894h-303.936zM76.291-64c-42.135 0-76.291 34.157-76.291 76.291v0 303.894c0 42.135 34.157 76.291 76.291 76.291v0h303.852c42.135 0 76.291-34.157 76.291-76.291v-303.894c0-42.135-34.157-76.291-76.291-76.291v0zM76.291 12.291h303.852v303.894h-303.852zM644.238 503.523c-42.135 0-76.291 34.157-76.291 76.291v0 303.894c0 42.135 34.157 76.291 76.291 76.291h303.936c42.135 0 76.291-34.157 76.291-76.291v0-303.894c0-42.135-34.157-76.291-76.291-76.291v0zM644.238 579.815h303.936v303.894h-303.936zM76.291 503.523c-42.135 0-76.291 34.157-76.291 76.291v0 303.894c0 42.135 34.157 76.291 76.291 76.291h303.852c42.135 0 76.291-34.157 76.291-76.291v0-303.894c0-42.135-34.157-76.291-76.291-76.291v0zM76.291 579.815h303.852v303.894h-303.852z" />
<glyph unicode="&#xe920;" glyph-name="heart" horiz-adv-x="1194" d="M1114.158 421.264l-88.222-97.978c-38.165-42.34-77.257-81.325-118.321-118.154l-1.458-1.286-299.467-267.859-320.161 288.29c-41.313 37.093-79.304 75.084-115.177 115.017l-1.22 1.381-89.819 99.701c-49.828 55.169-80.317 128.638-80.317 209.227 0 89.585 37.674 170.371 98.044 227.378l0.151 0.141c119.641 113.153 308.959 108.388 431.303-1.722l78.378-70.407 56.916 51.271c122.532 110.249 311.662 114.876 431.441 1.722 60.508-57.167 98.172-137.961 98.172-227.552 0-80.567-30.459-154.019-80.489-209.471l0.245 0.276z" />
<glyph unicode="&#xe921;" glyph-name="maximize" d="M717.772-64h-88.758c-24.238 0-43.887 19.649-43.887 43.887s19.649 43.887 43.887 43.887v0h256.035l-238.747 238.747 47.974 47.96 241.949-241.949v262.453c0 24.238 19.649 43.887 43.887 43.887s43.887-19.649 43.887-43.887v0-300.695c0-52.044-42.19-94.235-94.235-94.235-0.005 0-0.010 0-0.015 0h-211.979zM114.95-64h-20.701c-0.004 0-0.009 0-0.014 0-52.044 0-94.235 42.19-94.235 94.235 0 0.020 0 0.040 0 0.059v-0.003 300.695c0 24.238 19.649 43.887 43.887 43.887s43.887-19.649 43.887-43.887v0-262.467l241.977 241.963 47.96-47.96-238.747-238.747h256.021c24.238 0 43.887-19.649 43.887-43.887s-19.649-43.887-43.887-43.887v0h-280.022zM936.225 565.014v256.035l-241.949-241.949-47.974 47.974 245.165 245.137h-262.453c-24.242 0-43.894 19.652-43.894 43.894s19.652 43.894 43.894 43.894h300.695c52.052 0 94.249-42.197 94.249-94.249v0-300.737c0-24.238-19.649-43.887-43.887-43.887s-43.887 19.649-43.887 43.887v0zM0 565.014v300.737c0 0.013 0 0.027 0 0.042 0 52.029 42.178 94.207 94.207 94.207 0.015 0 0.030 0 0.045 0h300.735c24.238 0 43.887-19.649 43.887-43.887s-19.649-43.887-43.887-43.887v0h-262.453l245.165-245.165-47.974-47.974-241.949 241.963v-256.035c-0.267-24.13-19.757-43.621-43.862-43.887h-0.025c-24.112 0.312-43.575 19.776-43.887 43.858v0.030z" />
<glyph unicode="&#xe922;" glyph-name="minimize" d="M585.127-20.113v300.737c0 52.052 42.197 94.249 94.249 94.249v0h300.737c24.238 0 43.887-19.649 43.887-43.887s-19.649-43.887-43.887-43.887v0h-300.737c-3.572-0.008-6.466-2.902-6.474-6.473v-300.738c0-24.238-19.649-43.887-43.887-43.887s-43.887 19.649-43.887 43.887v0zM351.099-20.113v300.737c-0.047 3.557-2.918 6.427-6.47 6.474h-300.741c-24.238 0-43.887 19.649-43.887 43.887s19.649 43.887 43.887 43.887v0h300.737c52.044 0 94.235-42.19 94.235-94.235 0-0.005 0-0.010 0-0.015v0.001-300.737c0-24.238-19.649-43.887-43.887-43.887s-43.887 19.649-43.887 43.887v0zM679.376 521.127c-0.004 0-0.009 0-0.014 0-52.044 0-94.235 42.19-94.235 94.235v300.751c0 24.238 19.649 43.887 43.887 43.887s43.887-19.649 43.887-43.887v0-300.737c0.008-3.572 2.902-6.466 6.473-6.474h300.738c24.238 0 43.887-19.649 43.887-43.887s-19.649-43.887-43.887-43.887v0zM43.887 521.127c-24.238 0-43.887 19.649-43.887 43.887s19.649 43.887 43.887 43.887v0h300.737c3.557 0.047 6.427 2.918 6.474 6.47v300.741c0 24.238 19.649 43.887 43.887 43.887s43.887-19.649 43.887-43.887v0-300.737c0-0.008 0-0.018 0-0.028 0-52.029-42.178-94.207-94.207-94.207-0.010 0-0.020 0-0.030 0h0.002z" />
<glyph unicode="&#xe923;" glyph-name="maximize-v1" d="M719.063 960h192.485c62.040-0.144 112.294-50.399 112.438-112.424v-192.499h-68.26v188.401l-260.307-260.321-48.263 48.263 260.307 260.321h-188.401zM907.477 4.26l-260.321 260.321 48.263 48.263 260.321-260.321v188.415h68.26v-192.485c-0.264-62-50.453-112.189-112.427-112.452h-192.496v68.26zM328.581 583.156l-260.321 260.307v-188.401h-68.26v192.485c0.136 62.046 50.394 112.308 112.424 112.452h192.499v-68.26h-188.401l260.321-260.321zM376.844 264.581l-260.307-260.321h188.401v-68.26h-192.485c-31.032 0.021-59.107 12.66-79.376 33.064l-0.006 0.006-0.085-0.085c-20.378 20.318-32.985 48.419-32.985 79.465 0 0.001 0 0.002 0 0.002v0 192.471h68.26v-188.401l260.321 260.321z" />
<glyph unicode="&#xe924;" glyph-name="time" d="M512.039 960c-282.792 0-512.039-229.248-512.039-512.039s229.248-512.039 512.039-512.039c282.792 0 512.039 229.248 512.039 512.039v0c-0.269 282.683-229.356 511.77-512.014 512.039h-0.026zM512.039 893.223c245.868 0 445.183-199.315 445.183-445.183s-199.315-445.183-445.183-445.183c-245.868 0-445.183 199.315-445.183 445.183v0c0 0.14 0 0.307 0 0.474 0 245.606 199.103 444.709 444.709 444.709 0.166 0 0.333 0 0.499 0h-0.025zM512.039 815.316c-18.44 0-33.389-14.949-33.389-33.389v0-333.887c0-18.44 14.949-33.389 33.389-33.389v0h311.628c18.44 0 33.389 14.949 33.389 33.389s-14.949 33.389-33.389 33.389v0h-278.239v300.499c-0.223 18.27-15.085 32.994-33.386 32.994-0.001 0-0.002 0-0.002 0v0z" />
<glyph unicode="&#xe925;" glyph-name="input-calander" horiz-adv-x="1056" d="M0 693.505v-757.505h1056.394v1024h-1056.394zM992.637 8.432h-928.88v612.701h928.88zM63.757 887.568h928.88v-194.123h-928.88zM172.406 826.904h97.426v-72.554h-97.426zM786.563 826.904h97.426v-72.554h-97.426z" />
<glyph unicode="&#xe926;" glyph-name="calander" horiz-adv-x="1002" d="M120.056-63.848c-66.27 0.086-119.97 53.786-120.056 120.048v716.626c0.086 66.27 53.786 119.97 120.048 120.056h67.127c16.669-0.211 30.125-13.668 30.336-30.316v-0.020c-0.211-16.669-13.668-30.125-30.316-30.336h-67.139c-0.181 0.002-0.395 0.003-0.61 0.003-32.838 0-59.459-26.621-59.459-59.459 0-0.214 0.001-0.429 0.003-0.642v0.033-193.773h881.571v193.773c0.002 0.181 0.003 0.395 0.003 0.61 0 32.838-26.621 59.459-59.459 59.459-0.214 0-0.429-0.001-0.642-0.003h-66.858c-16.635 0.293-30.043 13.701-30.336 30.309v0.028c0.252 16.652 13.684 30.084 30.312 30.336h67.143c66.27-0.086 119.97-53.786 120.056-120.048v-716.626c-0.086-66.27-53.786-119.97-120.048-120.056h-0.008zM59.99 56.207c-0.002-0.181-0.003-0.395-0.003-0.61 0-32.838 26.621-59.459 59.459-59.459 0.214 0 0.429 0.001 0.642 0.003h761.407c0.204-0.003 0.445-0.004 0.687-0.004 32.796 0 59.383 26.587 59.383 59.383 0 0.241-0.001 0.482-0.004 0.723v-0.037 462.628h-881.571zM628.036 705.934c0.001 42.976 27.863 79.443 66.508 92.327l0.687 0.198v131.659c0 16.754 13.582 30.336 30.336 30.336v0c16.754 0 30.336-13.582 30.336-30.336v0-132.039c39.25-13.030 67.081-49.361 67.195-92.209v-0.014c-0.086-53.636-43.522-97.098-97.139-97.228h-0.012c-0.135-0.001-0.295-0.001-0.455-0.001-53.702 0-97.25 43.469-97.379 97.141v0.012zM688.026 705.934c-0.001-0.113-0.002-0.247-0.002-0.381 0-20.356 16.502-36.859 36.859-36.859 0.134 0 0.268 0.001 0.402 0.002h-0.020c0.113-0.001 0.247-0.002 0.381-0.002 20.356 0 36.859 16.502 36.859 36.859 0 0.134-0.001 0.268-0.002 0.402v-0.020c0.001 0.113 0.002 0.247 0.002 0.381 0 20.356-16.502 36.859-36.859 36.859-0.134 0-0.268-0.001-0.402-0.002h0.020c-0.091 0.001-0.199 0.001-0.307 0.001-20.356 0-36.859-16.502-36.859-36.859 0-0.187 0.001-0.374 0.004-0.56v0.028zM179.894 705.934c0.001 42.976 27.863 79.443 66.508 92.327l0.687 0.198v131.659c0 16.754 13.582 30.336 30.336 30.336v0c16.754 0 30.336-13.582 30.336-30.336v0-132.039c39.268-13.025 67.12-49.351 67.271-92.204v-0.018c-0.086-53.663-43.565-97.141-97.219-97.228h-0.008c-0.203-0.002-0.443-0.002-0.683-0.002-53.702 0-97.251 43.47-97.379 97.142v0.012zM239.884 705.934c-0.001-0.113-0.002-0.247-0.002-0.381 0-20.356 16.502-36.859 36.859-36.859 0.134 0 0.268 0.001 0.402 0.002h-0.020c0.113-0.001 0.247-0.002 0.381-0.002 20.356 0 36.859 16.502 36.859 36.859 0 0.134-0.001 0.268-0.002 0.402v-0.020c0.001 0.113 0.002 0.247 0.002 0.381 0 20.356-16.502 36.859-36.859 36.859-0.134 0-0.268-0.001-0.402-0.002h0.020c-0.159 0.002-0.347 0.004-0.535 0.004-20.356 0-36.859-16.502-36.859-36.859 0-0.188 0.001-0.376 0.004-0.563v0.028zM366.462 832.891c-16.754 0-30.336 13.582-30.336 30.336v0c0 16.754 13.582 30.336 30.336 30.336h269.083c16.754 0 30.336-13.582 30.336-30.336v0c0-16.754-13.582-30.336-30.336-30.336v0z" />
<glyph unicode="&#xe927;" glyph-name="location" horiz-adv-x="859" d="M406.983-54.625l-281.066 281.131c-77.746 77.759-125.831 185.174-125.831 303.821s48.086 226.063 125.832 303.822l-0.001-0.001c77.759 77.746 185.174 125.831 303.821 125.831s226.063-48.086 303.822-125.832l-0.001 0.001c77.746-77.759 125.831-185.174 125.831-303.821s-48.086-226.063-125.832-303.822l-281.13-281.13c-5.793-5.831-13.816-9.441-22.682-9.441-0.014 0-0.029 0-0.043 0h0.002c-0.004 0-0.009 0-0.014 0-8.875 0-16.906 3.609-22.707 9.439l-0.001 0.001zM171.296 788.704c-66.113-66.129-107.004-157.478-107.004-258.376s40.891-192.247 107.005-258.377l258.408-258.343 258.344 258.344c66.113 66.129 107.004 157.478 107.004 258.376s-40.891 192.247-107.005 258.377l0.001-0.001c-65.944 66.125-157.142 107.036-257.895 107.036-0.181 0-0.361 0-0.542 0h0.028c-0.141 0-0.308 0-0.476 0-100.744 0-191.933-40.912-257.859-107.027l-0.009-0.009zM241.807 541.298c0 0.019 0 0.042 0 0.065 0 106.434 86.282 192.716 192.716 192.716v0c106.47 0 192.781-86.311 192.781-192.781v0c0-106.434-86.282-192.716-192.716-192.716-0.023 0-0.046 0-0.069 0h0.004c0 0 0 0 0 0-106.434 0-192.716 86.282-192.716 192.716 0 0.092 0 0.183 0 0.275v-0.014zM306.067 541.298c0-70.98 57.541-128.521 128.521-128.521v0c70.98 0 128.521 57.541 128.521 128.521v0c0 0.019 0 0.042 0 0.065 0 70.98-57.541 128.521-128.521 128.521v0c-0.019 0-0.042 0-0.065 0-70.911 0-128.409-57.429-128.521-128.315v-0.011z" />
<glyph unicode="&#xe928;" glyph-name="tu" horiz-adv-x="704" d="M121.84-64c-67.797 2.712-121.732 58.33-121.732 126.545 0 1.607 0.030 3.208 0.089 4.8l-0.007-0.23v247.802c-0.126 1.074-0.198 2.319-0.198 3.58s0.072 2.506 0.211 3.73l-0.014-0.15c0.963 35.371 19.481 66.218 47.121 84.246l0.399 0.244c34.511 21.569 74.262 40.6 116.151 55.040l4.142 1.242h6.645c52.937 18.062 113.922 28.488 177.342 28.488 111.732 0 215.905-32.362 303.657-88.223l-2.294 1.365c28.036-18.271 46.547-49.121 47.491-84.351l0.003-0.139c1.011-1.463 1.962-3.137 2.764-4.893l0.084-0.206v-247.802c0.001-0.237 0.002-0.517 0.002-0.797 0-35.459-13.53-67.759-35.71-92.016l0.094 0.104c-21.391-23.431-51.983-38.151-86.017-38.407h-0.046zM351.93 545.333c-53.421 1.235-101.112 24.769-134.304 61.62l-0.148 0.167c-34.562 38.215-55.713 89.128-55.713 144.982 0 0.208 0 0.415 0.001 0.622v-0.032c-0.002 0.342-0.003 0.746-0.003 1.151 0 56.271 21.532 107.513 56.807 145.935l-0.143-0.157c33.986 37.058 82.583 60.244 136.598 60.377h0.024c54.061-0.612 102.492-24.21 136.068-61.459l0.147-0.166c34.44-38.11 55.514-88.871 55.514-144.553 0-1.007-0.007-2.012-0.021-3.016l0.002 0.152c-0.083-56.675-22.057-108.201-57.916-146.592l0.115 0.124c-33.668-36.173-81.431-58.839-134.493-59.211h-0.068z" />
<glyph unicode="&#xe929;" glyph-name="ta-empty" horiz-adv-x="881" d="M409.196 947.106l-148.754-148.639h-260.442v-730.386c0.098-72.917 59.191-131.999 132.102-132.082h616.456c72.907 0.098 131.983 59.174 132.082 132.072v730.396h-260.442l-148.754 148.639c-7.962 7.972-18.967 12.903-31.124 12.903s-23.162-4.931-31.123-12.903v0zM682.446 622.224v88.064h110.073v-642.207c-0.033-24.297-19.721-43.985-44.014-44.018h-616.393c-24.297 0.033-43.985 19.721-44.018 44.014v642.21h110.073v-88.064z" />
<glyph unicode="&#xe92a;" glyph-name="ta" horiz-adv-x="881" d="M132.11-64c-72.919 0.082-132.012 59.164-132.11 132.072v730.396h260.442l148.754 148.639c7.962 7.972 18.967 12.903 31.124 12.903s23.162-4.931 31.123-12.903v0l148.725-148.639h260.471v-730.386c-0.066-72.92-59.161-132.016-132.075-132.082h-0.006zM88.093 68.082c0.033-24.297 19.721-43.985 44.014-44.018h616.393c24.287 0.033 43.968 19.704 44.018 43.984v642.24h-110.073v-88.064h-484.28v88.064h-110.073zM171.917 153.001v86.535h288.451v-86.535zM171.917 297.227v86.535h519.211v-86.535zM171.917 441.452v86.535h519.211v-86.535z" />
<glyph unicode="&#xe92b;" glyph-name="emptyCal" horiz-adv-x="969" d="M811.318 906.845v11.792c-0.776 21.428-17.949 38.601-39.305 39.375l-0.072 0.002c-21.719-0.070-39.307-17.658-39.377-39.371v-11.83h-488.386v13.808c-0.776 21.428-17.949 38.601-39.305 39.375l-0.072 0.002c-21.719-0.070-39.307-17.658-39.377-39.371v-15.77c-91.135-0.56-164.863-74.288-165.422-165.369v-638.067c0.56-91.135 74.288-164.863 165.369-165.422h638.067c91.135 0.56 164.863 74.288 165.422 165.369v640.053c-0.351 88.49-69.765 160.656-157.118 165.404l-0.423 0.018zM165.423 828.059v0-7.882c0.776-21.428 17.949-38.601 39.305-39.375l0.072-0.002c21.719 0.070 39.307 17.658 39.377 39.371v7.889h488.386v-11.823c0.809-21.402 17.97-38.541 39.305-39.313l0.072-0.002c21.719 0.070 39.307 17.658 39.377 39.371v11.83c45.046-3.736 80.248-41.008 80.678-86.593v-110.449h-813.242v110.344c-0.001 0.148-0.001 0.323-0.001 0.498 0 47.574 38.566 86.14 86.14 86.14 0.186 0 0.372-0.001 0.558-0.002h-0.029zM803.437 16.679h-638.014c-47.672 0.435-86.202 38.964-86.636 86.595v449.081h813.304v-448.977c-2.051-47.715-40.759-85.742-88.562-86.697l-0.092-0.001z" />
<glyph unicode="&#xe92c;" glyph-name="upcomigTra" horiz-adv-x="969" d="M165.423-64c-91.131 0.542-164.863 74.263-165.422 165.338v638.099c0.56 91.128 74.292 164.85 165.371 165.391h0.052v15.794c0.088 21.712 17.665 39.29 39.369 39.377h0.008c21.428-0.776 38.601-17.949 39.375-39.305l0.002-0.072v-13.84h488.386v11.823c0.070 21.719 17.658 39.307 39.371 39.377h0.007c21.435-0.761 38.617-17.943 39.375-39.307l0.002-0.071v-11.792c87.783-4.751 157.206-76.926 157.541-165.389v-640.033c-0.56-91.128-74.292-164.85-165.371-165.391h-0.052zM78.786 103.315c0.435-47.672 38.964-86.202 86.595-86.636h638.055c47.901 0.941 86.618 38.977 88.647 86.513l0.006 0.186v448.977h-813.304zM104.014 802.832c-15.606-15.591-25.26-37.138-25.26-60.94 0-0.165 0-0.329 0.001-0.494v0.025-110.344h813.242v110.375c-0.416 45.635-35.626 82.915-80.362 86.616l-0.317 0.021v-11.823c-0.070-21.713-17.662-39.294-39.372-39.346h-0.005c-21.408 0.774-38.569 17.914-39.375 39.24l-0.002 0.075v11.792h-488.386v-7.882c-0.070-21.713-17.662-39.294-39.372-39.346h-0.005c-21.428 0.776-38.601 17.949-39.375 39.305l-0.002 0.072v7.851h-0.528c-0.005 0-0.011 0-0.017 0-23.766 0-45.284-9.628-60.865-25.197l0.001 0.001zM637.176 131.491c-17.071 4.405-29.479 19.666-29.479 37.824 0 11.358 4.855 21.582 12.602 28.711l0.028 0.025c29.541 33.482 61.037 64.977 90.608 98.459-33.482 29.541-66.963 61.068-100.445 92.563-7.056 7.056-11.42 16.804-11.42 27.57 0 21.534 17.457 38.99 38.99 38.99 10.767 0 20.515-4.364 27.57-11.42v0c43.442-39.377 84.713-78.786 129.986-117.915 6.859-7.15 11.082-16.875 11.082-27.586s-4.223-20.436-11.096-27.6l0.013 0.014c-41.363-43.442-80.679-84.558-120.118-128-7.158-7.824-17.414-12.713-28.812-12.713-3.367 0-6.634 0.427-9.75 1.229l0.271-0.059zM464.648 146.758c-7.048 7.052-11.406 16.792-11.406 27.55 0 9.88 3.677 18.902 9.736 25.771l-0.037-0.042c29.51 33.482 61.037 64.977 90.577 98.459-33.482 29.541-66.963 61.068-100.445 92.563-7.28 7.093-11.796 16.993-11.796 27.948 0 21.542 17.463 39.005 39.005 39.005 10.962 0 20.869-4.522 27.955-11.803l0.009-0.009c43.442-41.363 84.527-80.679 128-120.118 6.93-7.1 11.205-16.819 11.205-27.537 0-9.761-3.546-18.693-9.42-25.58l0.046 0.055c-41.394-43.442-80.679-84.558-120.149-128-6.822-6.006-15.831-9.671-25.696-9.671-10.759 0-20.5 4.36-27.552 11.409v0z" />
<glyph unicode="&#xe92d;" glyph-name="triBtn" d="M775.691 687.952c-131.479 151.321-360.733 167.406-512.054 35.927s-167.406-360.733-35.927-512.054c131.479-151.321 360.733-167.406 512.054-35.927v0c151.321 131.479 167.406 360.733 35.927 512.054v0zM684.37 608.605c0.147-0.154 0.314-0.338 0.479-0.527 3.127-3.599 4.428-8.164 3.981-12.561l-0.001-0.012-8.564-217.039c-0.262-4.918-2.438-9.722-6.444-13.202-3.787-3.29-8.516-4.796-13.16-4.591h0.011c-4.799 0.423-9.455 2.639-12.87 6.569-3.218 3.703-4.774 8.284-4.733 12.832v-0.027l7.070 174.099-304.733-264.774c-7.763-6.745-19.524-5.92-26.268 1.843s-5.92 19.524 1.843 26.268l304.65 264.703-173.405 17.338c-4.554 0.561-8.946 2.753-12.209 6.509-3.458 3.98-5.001 8.973-4.708 13.851v-0.004c0.484 4.543 2.628 8.936 6.362 12.18 4.062 3.529 9.208 5.006 14.171 4.519l0.012-0.001 216.108-21.827c4.482-0.667 8.812-2.759 12.226-6.218l0.044-0.046z" />
<glyph unicode="&#xe92e;" glyph-name="downlad" horiz-adv-x="1057" d="M178.568-63.942c-98.501 0.165-178.311 79.955-178.51 178.433v168.395c0 0.017 0 0.038 0 0.058 0 27.309 22.138 49.447 49.447 49.447 0.041 0 0.082 0 0.123 0h-0.006c0.035 0 0.076 0 0.117 0 27.309 0 49.447-22.138 49.447-49.447 0-0.021 0-0.041 0-0.062v0.003-168.376c0.099-43.802 35.581-79.284 79.373-79.383h699.955c43.839 0.066 79.367 35.553 79.499 79.37v168.389c0 0.017 0 0.038 0 0.058 0 27.309 22.138 49.447 49.447 49.447 0.021 0 0.041 0 0.062 0h-0.003c0.035 0 0.076 0 0.117 0 27.309 0 49.447-22.138 49.447-49.447 0-0.021 0-0.041 0-0.062v0.003-168.376c-0.166-98.571-80.095-178.419-178.681-178.452h-0.003zM493.537 247.883l-217.648 217.648c-8.937 8.946-14.463 21.3-14.463 34.945s5.527 25.999 14.464 34.945v0c8.965 8.895 21.313 14.391 34.945 14.391s25.98-5.497 34.948-14.395l133.079-133.079v508.040c0 0.017 0 0.038 0 0.058 0 27.341 22.164 49.505 49.505 49.505 0.021 0 0.041 0 0.062 0h-0.003c0.017 0 0.038 0 0.058 0 27.341 0 49.505-22.164 49.505-49.505 0-0.021 0-0.041 0-0.062v0.003-508.040l133.14 133.082c8.946 8.937 21.3 14.463 34.945 14.463s25.999-5.527 34.945-14.464v0c8.909-8.959 14.415-21.309 14.415-34.945s-5.507-25.986-14.418-34.947l-217.704-217.646c-8.954-8.93-21.3-14.464-34.937-14.502h-0.007c-13.624 0.055-25.946 5.585-34.888 14.503l0.001-0.001z" />
<glyph unicode="&#xe92f;" glyph-name="map-loc" horiz-adv-x="849" d="M384.204-38.423l-12.553 8.489c-64.97 45.744-121.923 94.729-173.776 148.654l-0.367 0.384c-93.058 97.629-197.508 243.91-197.508 416.421 1.31 233.903 190.573 423.165 424.35 424.474l0.125 0.001c233.894-1.33 423.145-190.581 424.474-424.347l0.001-0.127c0-172.692-104.45-318.973-197.617-416.457-52.221-54.309-109.173-103.294-170.45-146.564l-3.693-2.474q-7.982-5.551-12.553-8.489c-13.242-8.816-26.775-17.16-40.162-25.65-13.496 8.598-27.029 16.943-40.271 25.686zM424.475 404.918c0.002 0 0.004 0 0.006 0 72.133 0 130.608 58.475 130.608 130.608s-58.475 130.608-130.608 130.608c-72.133 0-130.608-58.475-130.608-130.608 0-36.074 14.625-68.732 38.269-92.368v0c23.633-23.625 56.276-38.237 92.332-38.239v0z" />
<glyph unicode="&#xe930;" glyph-name="heart-rate" horiz-adv-x="1120" d="M567.609-64v0c-0.153-0.002-0.333-0.003-0.514-0.003-8.748 0-16.878 2.645-23.635 7.178l0.153-0.097c-163.722 86.439-301.339 200.683-411.599 337.852l-1.96 2.521c-5.169 6.98-8.274 15.76-8.274 25.265 0 11.895 4.863 22.655 12.709 30.399l0.005 0.004h-91.782c-22.595 1.236-40.449 19.859-40.449 42.652s17.854 41.416 40.339 42.647l0.109 0.005h8.998c-1.632 2.417-3.085 5.185-4.221 8.11l-0.098 0.288-4.799 12.957c-16.288 41.794-25.726 90.176-25.726 140.762 0 84.405 26.277 162.673 71.096 227.069l-0.858-1.303c59.63 87.337 157.605 144.69 269.138 147.682l0.449 0.010c83.232-0.16 158.016-36.192 209.739-93.454l0.22-0.247c53.774 56.088 129.315 90.942 212.997 90.942 0.071 0 0.142 0 0.212 0h-0.011c132.747-2.928 246.339-82.007 299.072-195.163l0.87-2.079c24.735-51.987 39.18-112.97 39.18-177.327 0-86.966-26.377-167.771-71.566-234.853l0.952 1.5c-115.664-172.078-269.741-309.864-450.501-403.201l-6.73-3.159c-6.563-4.362-14.626-6.959-23.296-6.959-0.077 0-0.154 0-0.231 0.001h0.012zM194.722 339.121c1.585-1.535 3.040-3.18 4.362-4.932l0.077-0.107c100.458-124.904 222.929-227.538 362.186-303.188l6.262-3.113c165.283 87.144 301.52 209.1 402.838 356.877l2.443 3.773c37.811 54.18 60.414 121.413 60.414 193.926 0 50.753-11.073 98.919-30.935 142.215l0.874-2.127c-39.468 86.659-124.11 146.436-223.026 149.362l-0.371 0.009c-74.013-0.496-139.127-38.147-177.678-95.217l-0.487-0.764c-8.242-11.067-21.29-18.158-35.993-18.158s-27.751 7.091-35.908 18.040l-0.085 0.119c-37.432 58.362-101.586 96.74-174.772 97.779l-0.154 0.002c-82.938-2.828-155.286-45.73-198.599-109.855l-0.562-0.883c-33.992-49.409-54.291-110.537-54.291-176.405 0-40.41 7.64-79.035 21.554-114.51l-0.736 2.132 4.199-11.278c1.726-4.459 2.726-9.62 2.726-15.014 0-8.748-2.63-16.883-7.143-23.655l0.098 0.156h172.046l90.822 244.032c6.318 16.189 21.79 27.451 39.892 27.451s33.574-11.261 39.792-27.16l0.1-0.29 136.413-354.051 58.549 91.062c7.67 11.836 20.813 19.557 35.76 19.557 0.082 0 0.164 0 0.246-0.001h155.957c22.595-1.236 40.449-19.859 40.449-42.652s-17.854-41.416-40.339-42.647l-0.109-0.005h-132.814l-91.422-142.292c-7.727-11.818-20.897-19.517-35.865-19.517-18.051 0-33.487 11.198-39.739 27.026l-0.101 0.289-126.095 327.896-61.908-166.048c-6.235-16.346-21.751-27.761-39.943-27.835h-0.009z" />
<glyph unicode="&#xe931;" glyph-name="activity-management" horiz-adv-x="1028" d="M106.265-64c-0.158-0.001-0.346-0.001-0.533-0.001-58.46 0-105.852 47.391-105.852 105.852 0 0.188 0 0.375 0.001 0.562v-0.029 679.672c-0.001 0.158-0.001 0.346-0.001 0.533 0 58.46 47.391 105.852 105.852 105.852 0.188 0 0.375 0 0.562-0.001h97.253v131.443h76.833v-131.62h466.373v131.62h76.833v-131.62h98.346c58.754 0 106.383-47.63 106.383-106.383v0-679.672c0-58.754-47.63-106.383-106.383-106.383v0zM85.343 742.86c-5.466-5.182-8.867-12.495-8.867-20.603 0-0.112 0.001-0.224 0.002-0.336v0.017-679.672c0.044-8.255 3.425-15.712 8.863-21.097l0.002-0.002c5.159-5.293 12.358-8.576 20.323-8.576 0.211 0 0.421 0.002 0.63 0.007l-0.031-0.001h815.607c8.13 0.139 15.477 3.378 20.934 8.582l-0.012-0.012c5.228 5.327 8.454 12.633 8.454 20.693 0 0.143-0.001 0.286-0.003 0.428v-0.022 679.672c0.001 0.069 0.001 0.15 0.001 0.231 0 8.059-3.226 15.364-8.457 20.696l0.005-0.005c-5.381 5.325-12.754 8.647-20.903 8.747h-98.365v-132.861h-76.833v132.861h-466.373v-132.861h-76.833v132.861h-97.282c-8.107-0.023-15.429-3.366-20.68-8.741l-0.005-0.006zM614.246 207.692v76.833h204.788v-76.833zM208.393 207.692v76.833h204.434v-76.833zM614.246 411.771v76.833h204.788v-76.833zM208.393 411.771v76.833h204.434v-76.833z" />
<glyph unicode="&#xe932;" glyph-name="activity" d="M276.6-73.577c-3.951-0.238-8.571-0.374-13.222-0.374-123.667 0-224.906 96.026-233.221 217.582l-0.040 0.723v597.534c8.355 122.28 109.594 218.306 233.261 218.306 4.651 0 9.271-0.136 13.855-0.404l-0.633 0.030h480.798c3.952 0.238 8.573 0.374 13.226 0.374 123.679 0 224.932-96.020 233.277-217.58l0.040-0.725v-597.534c-8.386-122.285-109.638-218.306-233.317-218.306-4.653 0-9.273 0.136-13.859 0.404l0.633-0.030zM102.34 741.888v-597.534c8.378-82.435 77.424-146.222 161.369-146.222 4.537 0 9.031 0.186 13.475 0.552l-0.583-0.039h480.798c3.862-0.327 8.358-0.514 12.897-0.514 83.957 0 153.016 63.782 161.367 145.534l0.057 0.688v597.534c-8.407 82.441-77.467 146.223-161.424 146.223-4.54 0-9.036-0.186-13.481-0.552l0.583 0.039h-480.798c-3.866 0.328-8.366 0.515-12.91 0.515-83.881 0-152.887-63.691-161.293-145.351l-0.058-0.692zM335.089 203.625c-19.96 0-36.141 16.181-36.141 36.141v0c0 19.96 16.181 36.141 36.141 36.141v0h181.85c19.96 0 36.141-16.181 36.141-36.141v0c0-19.96-16.181-36.141-36.141-36.141v0zM331.896 411.317c-19.96 0-36.141 16.181-36.141 36.141v0c0 19.96 16.181 36.141 36.141 36.141v0h370.146c19.96 0 36.141-16.181 36.141-36.141v0c0-19.96-16.181-36.141-36.141-36.141v0zM331.896 619.189c-19.96 0-36.141 16.181-36.141 36.141v0c0 19.96 16.181 36.141 36.141 36.141v0h370.146c19.96 0 36.141-16.181 36.141-36.141v0c0-19.96-16.181-36.141-36.141-36.141v0z" />
<glyph unicode="&#xe933;" glyph-name="back" d="M424.122 14.010l-410.717 410.624c-3.974 4.253-7.312 9.169-9.817 14.55l-0.144 0.344c-2.121 5.236-3.38 11.306-3.444 17.661v0.026c0.064 6.278 1.288 12.252 3.468 17.742l-0.117-0.334c2.527 5.764 5.879 10.697 9.972 14.906l410.706 410.613c8.246 8.163 19.591 13.209 32.114 13.219h0.002c0.070 0 0.153 0.001 0.235 0.001 12.546 0 23.893-5.127 32.063-13.401l0.005-0.005c8.261-8.238 13.379-19.624 13.405-32.204v-0.005c0-0.045 0-0.098 0-0.151 0-12.631-5.123-24.065-13.405-32.338l-332.893-332.707h848.244c12.577-0.053 23.968-5.086 32.312-13.228l-0.009 0.009c8.228-8.259 13.336-19.631 13.405-32.196v-0.013c-0.055-12.669-5.162-24.134-13.41-32.494l0.005 0.005c-8.335-8.132-19.726-13.166-32.292-13.219h-848.068l332.707-332.707c8.261-8.238 13.379-19.624 13.405-32.204v-0.005c0-0.045 0-0.098 0-0.151 0-12.631-5.123-24.065-13.405-32.338v0c-8.174-8.278-19.522-13.406-32.067-13.406-0.083 0-0.166 0-0.248 0.001h0.013c-12.516 0.089-23.823 5.195-32.023 13.405v0z" />
<glyph unicode="&#xe934;" glyph-name="calender" horiz-adv-x="1059" d="M431.262-64c-195.822 0-294.127 0-362.62 68.592-34.69 37.317-57.201 86.378-60.963 140.601l-0.040 0.722c-5.263 51.553-8.265 111.403-8.265 171.955 0 17.316 0.245 34.574 0.733 51.772l-0.057-2.528v98.552c0 52.577 0 98.207 1.33 137.972-0.799 2.944-1.282 6.332-1.33 9.826v0.030c0.045 4.612 0.909 9.009 2.452 13.072l-0.087-0.26c4.928 95.201 19.71 155.367 66.276 202.031 37.34 34.735 86.47 57.244 140.766 60.916l0.705 0.038c18.626 2.513 38.632 4.188 60.56 5.273v28.531c0.056 20.395 16.603 36.908 37.006 36.908 0.017 0 0.035 0 0.052 0h-0.003c20.372-0.028 36.88-16.535 36.908-36.905v-26.513c26.313 0.246 54.992 0.246 86.627 0.246h197.103c30.994 0 59.525 0 85.888-0.246v26.51c0.028 20.389 16.563 36.908 36.957 36.908 0.017 0 0.035 0 0.052 0h-0.003c20.372-0.028 36.88-16.535 36.908-36.905v-28.484c95.644-4.928 156.106-19.71 202.721-66.276 34.731-37.352 57.263-86.468 61.013-140.752l0.040-0.719c5.231-51.528 8.214-111.354 8.214-171.877 0-17.344-0.245-34.631-0.732-51.857l0.057 2.535v-98.552c0-195.723 0-294.029-68.641-362.62-42.664-38.695-99.363-62.598-161.636-63.269l-0.137-0.001h-1.675l-395.882-4.928zM73.963 465.665v-98.552c0-175.372 0-263.33 46.911-310.437s134.769-46.911 310.043-46.911l392.482 4.928c0.382-0.003 0.833-0.005 1.285-0.005 43.564 0 83.432 15.827 114.167 42.044l-0.245-0.204c46.911 46.911 46.911 135.016 46.911 310.437v98.552c0 41.934 0 78.841-0.69 111.413h-575.048c-20.389 0.028-36.908 16.563-36.908 36.957 0 0.017 0 0.035 0 0.052v-0.003c0.028 20.372 16.535 36.88 36.905 36.908h571.602c0.030 1.27 0.048 2.766 0.048 4.267 0 45.936-16.175 88.094-43.14 121.089l0.272-0.343c-46.911 46.911-134.966 46.911-310.437 46.911h-197.103c-175.372 0-263.428 0-310.437-46.911-26.758-32.759-42.97-75.045-42.97-121.117 0-1.56 0.019-3.117 0.056-4.668l-0.004 0.23h150.045c20.372-0.028 36.88-16.535 36.908-36.905v-0.003c0-0.015 0-0.032 0-0.049 0-20.393-16.518-36.929-36.905-36.957h-153.349c-0.443-32.226-0.443-69.035-0.443-110.723zM741.305 184.547c-8.907 8.904-14.421 21.201-14.438 34.785v0.003c0.003 13.606 5.52 25.923 14.438 34.838v0c8.915 8.918 21.232 14.435 34.837 14.438h0.001c13.618-0.024 25.944-5.535 34.889-14.44l-0.002 0.002c8.891-8.913 14.389-21.214 14.389-34.799 0-0.014 0-0.027 0-0.041v0.002c-0.003-13.581-5.5-25.878-14.39-34.79l0.001 0.001c-8.918-8.92-21.239-14.438-34.849-14.438-0.014 0-0.027 0-0.041 0h0.002c-0.045 0-0.099 0-0.153 0-13.558 0-25.827 5.52-34.682 14.435l-0.003 0.003zM494.926 184.547c-8.86 8.863-14.34 21.105-14.34 34.628 0 0.057 0 0.113 0 0.17v-0.009c0 0.026 0 0.057 0 0.088 0 13.561 5.478 25.842 14.341 34.752l-0.002-0.002c8.957 8.91 21.302 14.422 34.934 14.438h0.003c13.588-0.017 25.885-5.531 34.789-14.438v0c8.936-8.909 14.47-21.225 14.487-34.835v-0.003c-0.031-13.595-5.562-25.891-14.486-34.787l-0.001-0.001c-8.858-8.918-21.127-14.438-34.685-14.438-0.037 0-0.073 0-0.109 0h0.006c-0.041 0-0.089 0-0.137 0-13.61 0-25.931 5.518-34.849 14.438v0zM248.547 184.547c-8.907 8.904-14.421 21.201-14.438 34.785v0.003c0.003 13.606 5.52 25.923 14.438 34.838v0c8.915 8.918 21.232 14.435 34.837 14.438h0.001c13.588-0.017 25.885-5.531 34.789-14.438v0c8.948-8.87 14.487-21.165 14.487-34.754 0-0.029 0-0.059 0-0.088v0.005c0-0.035 0-0.076 0-0.117 0-13.563-5.541-25.832-14.482-34.667l-0.005-0.005c-8.828-8.917-21.070-14.438-34.603-14.438-0.065 0-0.131 0-0.196 0h0.010c-0.045 0-0.099 0-0.153 0-13.558 0-25.827 5.52-34.682 14.435l-0.003 0.003zM741.305 381.65c-8.918 8.915-14.435 21.232-14.438 34.837v0.001c0.041 13.615 5.548 25.936 14.441 34.89l-0.003-0.003c8.908 8.862 21.189 14.339 34.75 14.339 0.031 0 0.062 0 0.093 0h-0.005c0.041 0 0.089 0 0.137 0 13.561 0 25.842-5.478 34.752-14.342l-0.002 0.002c8.891-8.913 14.389-21.214 14.389-34.799 0-0.031 0-0.062 0-0.093v0.005c0-0.012 0-0.025 0-0.039 0-13.585-5.498-25.886-14.39-34.8l0.001 0.001c-8.943-8.903-21.269-14.414-34.883-14.438h-0.005c-0.012 0-0.025 0-0.039 0-13.585 0-25.886 5.498-34.8 14.39l0.001-0.001zM494.926 381.65c-8.862 8.908-14.339 21.189-14.339 34.75 0 0.031 0 0.062 0 0.093v-0.005c0 0.041 0 0.089 0 0.137 0 13.561 5.478 25.842 14.342 34.752l-0.002-0.002c8.908 8.862 21.189 14.34 34.75 14.34 0.066 0 0.131 0 0.197 0h-0.010c0.012 0 0.025 0 0.039 0 13.561 0 25.842-5.478 34.752-14.341l-0.002 0.002c8.921-8.937 14.449-21.263 14.487-34.88v-0.007c-0.017-13.613-5.551-25.929-14.486-34.837l-0.001-0.001c-8.904-8.907-21.201-14.421-34.785-14.438h-0.003c-0.013 0-0.029 0-0.044 0-13.63 0-25.977 5.496-34.945 14.392l0.003-0.003zM248.547 381.65c-8.918 8.915-14.435 21.232-14.438 34.837v0.001c0.041 13.615 5.548 25.936 14.441 34.89l-0.003-0.003c8.908 8.862 21.189 14.339 34.75 14.339 0.031 0 0.062 0 0.093 0h-0.005c0.012 0 0.025 0 0.039 0 13.561 0 25.842-5.478 34.752-14.341l-0.002 0.002c8.947-8.92 14.484-21.257 14.487-34.887v-0.001c0-0.025 0-0.054 0-0.084 0-13.589-5.54-25.884-14.484-34.751l-0.003-0.003c-8.904-8.907-21.201-14.421-34.785-14.438h-0.003c-0.012 0-0.025 0-0.039 0-13.585 0-25.886 5.498-34.8 14.39l0.001-0.001z" />
<glyph unicode="&#xe935;" glyph-name="dashboard" d="M922.146-23.177h-309.794c-0.534-0.011-1.164-0.017-1.795-0.017-51.377 0-93.156 41.097-94.254 92.211l-0.002 0.102v382.293c1.213 51.127 42.946 92.109 94.251 92.109 0.633 0 1.264-0.006 1.894-0.019l-0.094 0.001h309.794c0.515 0.010 1.123 0.016 1.732 0.016 51.305 0 93.038-40.982 94.249-91.995l0.002-0.113v-382.293c-1.101-51.216-42.879-92.312-94.256-92.312-0.607 0-1.213 0.006-1.818 0.017l0.091-0.001zM612.352 454.69c-0.187 0.016-0.405 0.024-0.625 0.024-2.738 0-5.155-1.378-6.594-3.479l-0.018-0.027v-382.293c1.475-2.090 3.881-3.438 6.601-3.438 0.224 0 0.445 0.009 0.664 0.027l-0.029-0.002h309.794c0.187-0.016 0.405-0.024 0.625-0.024 2.738 0 5.155 1.378 6.594 3.479l0.018 0.027v382.43c-1.475 2.090-3.881 3.438-6.601 3.438-0.224 0-0.445-0.009-0.664-0.027l0.029 0.002zM405.845-23.177h-309.862c-0.514-0.010-1.12-0.016-1.727-0.016-51.377 0-93.155 41.097-94.254 92.21l-0.002 0.102v191.147c1.214 51.126 42.947 92.108 94.251 92.108 0.609 0 1.216-0.006 1.822-0.017l-0.091 0.001h309.794c0.515 0.010 1.123 0.016 1.732 0.016 51.305 0 93.038-40.982 94.249-91.995l0.002-0.113v-191.147c-1.101-51.216-42.879-92.312-94.256-92.312-0.607 0-1.213 0.006-1.818 0.017l0.091-0.001zM95.983 263.612c-0.214 0.020-0.463 0.032-0.714 0.032-2.683 0-5.058-1.323-6.506-3.353l-0.016-0.024v-191.147c1.475-2.090 3.881-3.438 6.601-3.438 0.224 0 0.445 0.009 0.664 0.027l-0.029-0.002h309.794c0.2-0.018 0.433-0.028 0.669-0.028 2.711 0 5.106 1.351 6.55 3.416l0.017 0.026v191.147c-1.475 2.090-3.881 3.438-6.601 3.438-0.224 0-0.445-0.009-0.664-0.027l0.029 0.002zM405.777 359.185h-309.794c-0.514-0.010-1.121-0.016-1.729-0.016-51.353 0-93.116 41.058-94.252 92.138l-0.002 0.106v382.293c1.176 51.156 42.924 92.176 94.253 92.176 0.608 0 1.215-0.006 1.821-0.017l-0.091 0.001h309.794c0.515 0.010 1.122 0.016 1.73 0.016 51.329 0 93.077-41.020 94.251-92.067l0.002-0.109v-382.293c-1.138-51.186-42.902-92.244-94.254-92.244-0.608 0-1.214 0.006-1.819 0.017l0.091-0.001zM95.983 837.12c-0.2 0.018-0.433 0.028-0.669 0.028-2.711 0-5.106-1.351-6.55-3.416l-0.017-0.026v-382.293c1.475-2.090 3.881-3.438 6.601-3.438 0.224 0 0.445 0.009 0.664 0.027l-0.029-0.002h309.794c0.2-0.018 0.433-0.028 0.669-0.028 2.711 0 5.106 1.351 6.55 3.416l0.017 0.026v382.293c-1.475 2.090-3.881 3.438-6.601 3.438-0.224 0-0.445-0.009-0.664-0.027l0.029 0.002zM922.010 550.4h-309.658c-0.535-0.011-1.166-0.017-1.798-0.017-51.329 0-93.078 41.021-94.251 92.068l-0.002 0.109v191.147c1.175 51.156 42.924 92.177 94.253 92.177 0.632 0 1.263-0.006 1.892-0.019l-0.094 0.001h309.794c0.515 0.010 1.122 0.016 1.73 0.016 51.329 0 93.077-41.020 94.251-92.067l0.002-0.109v-191.147c-1.138-51.186-42.902-92.244-94.254-92.244-0.608 0-1.214 0.006-1.819 0.017l0.091-0.001zM612.352 837.12c-0.22 0.021-0.475 0.034-0.733 0.034-2.713 0-5.111-1.353-6.554-3.421l-0.017-0.026v-191.147c1.475-2.090 3.881-3.438 6.601-3.438 0.224 0 0.445 0.009 0.664 0.027l-0.029-0.002h309.794c0.187-0.016 0.405-0.024 0.625-0.024 2.738 0 5.155 1.378 6.594 3.479l0.018 0.027v191.078c-1.475 2.090-3.881 3.438-6.601 3.438-0.224 0-0.445-0.009-0.664-0.027l0.029 0.002z" />
<glyph unicode="&#xe936;" glyph-name="eye-close" d="M0-5.478l224.154 213.504q-14.643 11.315-28.262 22.989c-38.686 32.914-72.614 69.507-101.872 109.717l-1.245 1.796c-23.207 25.967-38.552 59.406-42.035 96.296l-0.052 0.676c3.475 38.185 18.798 72.252 42.211 99.073l-0.176-0.206c30.408 42.051 64.382 78.625 102.312 110.664l0.908 0.747c90.955 82.394 210.764 134.425 342.62 139.337l0.983 0.029c84.768-1.152 164.004-23.792 232.826-62.702l-2.426 1.262 216.883 206.694 52.941-55.552-202.65-193.024c16.282-11.622 31.744-23.706 46.080-35.84 38.824-32.797 72.796-69.37 101.991-109.633l1.228-1.778c23.238-26.615 38.56-60.682 41.985-98.188l0.050-0.679c-3.475-38.185-18.798-72.252-42.211-99.073l0.176 0.206c-30.397-42.079-64.373-78.671-102.314-110.717l-0.906-0.745c-91.013-82.381-210.873-134.395-342.776-139.286l-0.981-0.029c-93.010 1.704-179.304 29.007-252.556 75.129l2.035-1.196-236.083-224.87zM539.597 159.795c115.475 5.306 219.373 50.919 298.845 122.981l-0.4-0.357c34.317 28.974 64.359 61.259 90.206 96.792l1.083 1.563c12.139 16.85 22.11 36.326 28.916 57.229l0.422 1.497c-7.246 22.382-17.215 41.837-29.771 59.309l0.433-0.634c-26.931 37.096-56.973 69.381-90.482 97.691l-0.807 0.664c-15.569 13.326-32.726 26.466-50.579 38.662l-2.055 1.325-76.8-73.062c25.556-34.181 40.93-77.27 40.96-123.948v-0.007c-0.233-115.842-94.078-209.688-209.898-209.92h-0.022c-0.031 0-0.067 0-0.104 0-50.22 0-96.297 17.739-132.307 47.293l0.365-0.291-65.536-62.413c56.793-32.877 124.676-52.852 197.103-54.316l0.426-0.007zM149.914 382.771c27.148-37.116 57.259-69.486 90.751-98.003l0.794-0.66c10.803-9.267 22.221-18.381 34.099-27.187l82.227 78.336c-17.543 29.855-27.904 65.76-27.904 104.085 0 0.038 0 0.075 0 0.113v-0.006c0.262 115.83 94.090 209.659 209.895 209.92h0.025c0.043 0 0.094 0 0.146 0 41.916 0 80.938-12.394 113.6-33.718l-0.798 0.489 63.334 60.314c-51.403 26.112-111.947 41.813-176.060 42.799l-0.324 0.004c-115.448-5.429-219.281-51.121-298.685-123.233l0.394 0.353c-34.306-28.984-64.347-61.268-90.205-96.792l-1.085-1.564c-12.11-16.81-22.077-36.23-28.911-57.069l-0.427-1.503c7.981-21.624 17.786-40.314 29.639-57.482l-0.558 0.854zM539.699 299.571c0.137 0 0.3-0.001 0.462-0.001 76.942 0 139.315 62.374 139.315 139.315 0 0.198 0 0.396-0.001 0.594v-0.031c0 0.126 0.001 0.275 0.001 0.424 0 27.83-8.13 53.761-22.146 75.548l0.334-0.554-199.066-189.44c22.505-16.199 50.626-25.907 81.014-25.907 0.031 0 0.061 0 0.091 0h-0.005zM399.872 439.45c0-0.098 0-0.213 0-0.329 0-19.368 3.915-37.821 10.996-54.612l-0.346 0.925 189.44 180.378c-17.546 8.499-38.163 13.466-59.939 13.466-0.096 0-0.191 0-0.287 0h0.015c-0.183 0.001-0.399 0.001-0.615 0.001-76.942 0-139.315-62.374-139.315-139.315 0-0.163 0-0.325 0.001-0.487v0.025z" />
<glyph unicode="&#xe937;" glyph-name="facebook" d="M588.8 360.64h130.304l52.096 208.448h-182.4v104.256c0 53.696 0 104.256 104.256 104.256h78.208v175.104c-43.843 4.648-94.714 7.299-146.204 7.299-0.958 0-1.915-0.001-2.872-0.003h0.148c-5.043 0.401-10.92 0.629-16.849 0.629-124.808 0-225.984-101.176-225.984-225.984 0-6.89 0.308-13.709 0.912-20.442l-0.063 0.869v-145.92h-156.352v-208.512h156.352v-443.008h208.448z" />
<glyph unicode="&#xe938;" glyph-name="help" d="M0 448.32c0.219 282.428 229.222 511.296 511.68 511.296 282.593 0 511.68-229.087 511.68-511.68 0-282.458-228.868-511.461-511.275-511.68h-0.021c-282.688 0.291-511.773 229.376-512.064 512.037v0.027zM73.234 448.32c0-242.359 196.471-438.83 438.83-438.83s438.83 196.471 438.83 438.83c0 242.359-196.471 438.83-438.83 438.83v0c-242.271-0.218-438.611-196.558-438.83-438.808v-0.021zM466.844 228.809c0 24.974 20.246 45.22 45.22 45.22s45.22-20.246 45.22-45.22c0-24.974-20.246-45.22-45.22-45.22v0c-24.828 0.108-44.939 20.151-45.156 44.943v0.021zM475.351 375.086c0 118.454 109.819 109.947 109.819 182.99 0.020 0.645 0.032 1.402 0.032 2.163 0 40.411-32.759 73.17-73.17 73.17s-73.17-32.759-73.17-73.17c0-0.761 0.012-1.519 0.035-2.274l-0.003 0.111h-73.106c0 80.786 65.49 146.277 146.277 146.277s146.277-65.49 146.277-146.277v0c0-91.463-109.947-101.057-109.947-182.99 0-20.188-16.365-36.553-36.553-36.553s-36.553 16.365-36.553 36.553v0z" />
<glyph unicode="&#xe939;" glyph-name="instagram" d="M910.215 960c62.772 0 113.659-50.887 113.659-113.659v0-796.557c0-62.772-50.887-113.659-113.659-113.659v0h-796.557c-62.772 0-113.659 50.887-113.659 113.659v0 796.557c0 62.772 50.887 113.659 113.659 113.659v0zM881.801 78.263v301.448c0 102.423-83.030 185.453-185.453 185.453v0c-55.069-1.936-103.052-30.595-131.593-73.34l-0.377-0.601v63.144h-158.743v-476.166h158.68v280.484c0 43.836 35.536 79.372 79.372 79.372s79.372-35.536 79.372-79.372v-280.484zM221.003 643.714c52.568 0.394 95.030 43.1 95.030 95.723 0 52.868-42.858 95.726-95.726 95.726s-95.726-42.858-95.726-95.726c0-0.154 0-0.309 0.001-0.463v0.024c0.177-52.664 42.911-95.287 95.599-95.287 0.289 0 0.577 0.001 0.866 0.004h-0.044zM300.058 78.263v476.103h-157.859v-476.166z" />
<glyph unicode="&#xe93a;" glyph-name="leaderboard" d="M322.176 7.36h-251.84c-20.239 0.016-38.453 8.672-51.155 22.479l-0.045 0.049c-11.913 13.198-19.202 30.77-19.202 50.045 0 0.181 0.001 0.362 0.002 0.543v-0.028 307.2c-0.002 0.226-0.004 0.492-0.004 0.759 0 19.197 7.293 36.691 19.259 49.862l-0.055-0.061c12.692 13.941 30.915 22.656 51.173 22.656 0.010 0 0.019 0 0.029 0h248.959c1.007 0.491 2.19 0.778 3.441 0.778 0.14 0 0.28-0.004 0.418-0.011l-0.019 0.001 1.216 189.76c-0.002 0.218-0.004 0.476-0.004 0.735 0 19.205 7.292 36.706 19.259 49.887l-0.055-0.061c12.716 13.922 30.938 22.63 51.195 22.656h255.493c20.095-0.069 38.142-8.775 50.635-22.597l0.053-0.059c11.911-13.075 19.205-30.537 19.205-49.703 0-0.301-0.002-0.602-0.005-0.902v0.046-306.56h243.904c20.239-0.016 38.453-8.672 51.155-22.479l0.045-0.049c11.913-13.207 19.202-30.787 19.202-50.069 0-0.173-0.001-0.345-0.002-0.517v0.026-191.488c0.001-0.146 0.002-0.318 0.002-0.491 0-19.282-7.288-36.862-19.261-50.136l0.059 0.066c-12.747-13.856-30.961-22.512-51.197-22.528h-287.363c-0.718-0.047-1.556-0.074-2.4-0.074s-1.682 0.027-2.513 0.080l0.113-0.006c-173.952-0.384-263.424-0.704-308.48-0.704-26.048 0.512-36.992 0.64-41.216 0.896zM957.952 84.16v184.128h-237.504v-184.128zM76.736 84.16h242.56v299.84h-242.56zM401.088 84.48h237.504v187.456c0 0.010 0 0.021 0 0.032 0 9.771 1.856 19.109 5.234 27.68l-0.178-0.512v348.864h-242.56zM357.696 819.2c-21.208 0-38.4 17.192-38.4 38.4v0c0 21.208 17.192 38.4 38.4 38.4h319.168c21.208 0 38.4-17.192 38.4-38.4v0c0-21.208-17.192-38.4-38.4-38.4v0z" />
<glyph unicode="&#xe93b;" glyph-name="profile-settings" d="M102.4 13.884c-28.902 0.195-54.884 12.534-73.128 32.163l-0.058 0.063c-17.929 19.563-28.916 45.745-28.916 74.493 0 0.282 0.001 0.563 0.003 0.845v-0.043 670.841c-0.001 0.161-0.001 0.352-0.001 0.543 0 28.792 10.984 55.018 28.991 74.716l-0.077-0.085c18.265 19.766 44.26 32.157 73.151 32.346h816.403c28.827-0.117 54.732-12.533 72.755-32.269l0.069-0.077c18.141-19.479 29.276-45.693 29.276-74.507 0-0.234-0.001-0.468-0.002-0.702v0.036-311.176c0-16.634-13.484-30.118-30.118-30.118s-30.118 13.484-30.118 30.118v0 48.61h-900.397v-408.215c-0.001-0.115-0.001-0.252-0.001-0.389 0-13.062 4.914-24.976 12.995-33.994l-0.042 0.048c7.177-7.893 17.456-12.856 28.896-12.95h407.991c16.634 0 30.118-13.484 30.118-30.118s-13.484-30.118-30.118-30.118v0zM73.487 826.458c-8.038-8.994-12.951-20.93-12.951-34.013 0-0.071 0-0.141 0-0.211v0.011-202.029h900.096v202.029c0.001 0.127 0.002 0.278 0.002 0.429 0 13.010-4.916 24.872-12.992 33.83l0.040-0.045c-7.215 7.858-17.461 12.836-28.871 13.070l-0.042 0.001h-816.369c-0.004 0-0.009 0-0.013 0-11.588 0-22-5.034-29.168-13.034l-0.033-0.037zM780.288 45.869v78.306c-17.435 5.266-32.403 14.238-44.603 26.050l0.029-0.028-67.524-38.912c-4.437-2.376-9.683-3.83-15.254-3.975l-0.045-0.001c-11.11 0.076-20.783 6.155-25.944 15.153l-0.078 0.147c-2.442 4.256-3.883 9.356-3.883 14.792 0 11.149 6.058 20.883 15.062 26.090l0.145 0.077 67.283 38.912c-1.937 7.483-3.057 16.076-3.072 24.928v0.009c0 0.028 0 0.062 0 0.095 0 8.823 1.121 17.385 3.227 25.55l-0.155-0.708-66.56 38.249c-9.111 5.313-15.136 15.039-15.136 26.172 0 16.676 13.519 30.195 30.195 30.195 5.543 0 10.737-1.494 15.202-4.1l-0.143 0.077 66.259-38.008c12.217 11.913 27.332 20.911 44.187 25.834l0.749 0.187v80.113c0 16.634 13.484 30.118 30.118 30.118v0c11.114-0.1 20.817-6.052 26.185-14.921l0.077-0.138c2.433-4.424 3.896-9.683 3.975-15.276v-80.137c16.781-4.943 31.206-13.467 42.987-24.733l-0.039 0.037 69.873 40.358c4.346 2.576 9.579 4.098 15.168 4.098 11.139 0 20.865-6.047 26.076-15.037l0.077-0.145c2.537-4.32 4.035-9.514 4.035-15.059s-1.498-10.739-4.112-15.201l0.077 0.142c-2.838-4.489-6.556-8.169-10.938-10.879l-0.145-0.084-69.15-39.635c2.044-8.175 3.248-17.574 3.313-27.244v-0.042c-0.105-9.476-1.307-18.62-3.484-27.378l0.171 0.814 67.524-38.912c9.047-5.309 15.025-14.988 15.025-26.063 0-5.479-1.463-10.616-4.019-15.042l0.077 0.145c-5.36-9.161-15.125-15.233-26.313-15.3h-0.010c-5.495 0.229-10.603 1.673-15.131 4.069l0.193-0.093-68.247 39.514c-11.77-11.149-26.187-19.626-42.204-24.386l-0.743-0.19v-78.848c0-16.634-13.484-30.118-30.118-30.118s-30.118 13.484-30.118 30.118v0zM772.277 256.693c-0.539-2.394-1.434-4.508-2.639-6.406l0.048 0.082c-1.164-1.736-2.292-3.229-3.497-4.655l0.063 0.077c-2.263-5.336-3.607-11.537-3.674-18.045v-0.026c0.194-25.901 21.235-46.822 47.163-46.822 26.048 0 47.164 21.116 47.164 47.164s-21.116 47.164-47.164 47.164c-15.257 0-28.822-7.244-37.443-18.481l-0.083-0.112zM268.529 714.903c0 0.018 0 0.039 0 0.060 0 28.477 23.085 51.561 51.561 51.561s51.561-23.085 51.561-51.561c0-28.477-23.085-51.561-51.561-51.561-0.021 0-0.042 0-0.063 0h0.003c-0.125-0.001-0.273-0.002-0.422-0.002-28.356 0-51.347 22.971-51.381 51.319v0.003zM133.361 714.903c0 0.018 0 0.039 0 0.060 0 28.477 23.085 51.561 51.561 51.561s51.561-23.085 51.561-51.561c0-28.455-23.050-51.527-51.498-51.561h-0.003c-0.090-0.001-0.196-0.001-0.302-0.001-28.404 0-51.45 22.941-51.621 51.305v0.016z" />
<glyph unicode="&#xe93c;" glyph-name="search" d="M14.037 17.965l213.059 213.059c-61.896 76.316-99.374 174.625-99.374 281.689 0 247.936 200.992 448.928 448.928 448.928s448.928-200.992 448.928-448.928c0-247.936-200.992-448.928-448.928-448.928-107.064 0-205.374 37.478-282.526 100.032l0.837-0.657-213.059-213.059c-8.601-8.224-20.285-13.286-33.151-13.286-26.51 0-48.001 21.491-48.001 48.001 0 12.866 5.062 24.55 13.303 33.169l-0.017-0.018zM927.998 512.012c0 194.397-157.59 351.986-351.986 351.986s-351.986-157.59-351.986-351.986c0-194.397 157.59-351.986 351.986-351.986v0c194.311 0.214 351.772 157.676 351.986 351.966v0.021z" />
<glyph unicode="&#xe93d;" glyph-name="settings" d="M464.315-64c-0.026 0-0.057 0-0.087 0-15.817 0-29.115 10.788-32.936 25.407l-0.053 0.237-24.679 97.527-89.811 36.991-69.897-56.734c-5.83-4.82-13.381-7.743-21.615-7.743-9.421 0-17.948 3.827-24.112 10.012l-0.001 0.001-95.484 95.598c-6.159 6.16-9.968 14.669-9.968 24.068 0 8.701 3.265 16.64 8.636 22.658l-0.029-0.033 58.153 65.245-38.523 91.342-98.775 26.949c-14.577 4.047-25.104 17.186-25.133 32.789v95.601c0 0.014 0 0.031 0 0.048 0 16.043 11.098 29.494 26.036 33.094l0.232 0.047 96.449 22.694 37.388 92.023-56.734 69.954c-4.681 5.782-7.514 13.227-7.514 21.334 0 9.392 3.804 17.896 9.954 24.054l95.484 95.597c6.163 6.177 14.684 9.998 24.098 9.998 8.687 0 16.614-3.254 22.628-8.61l-0.034 0.030 65.472-58.21 91.229 38.409 25.871 98.548c3.954 14.741 17.196 25.417 32.93 25.417 0.011 0 0.023 0 0.034 0h93.383c15.725-0.012 28.954-10.683 32.851-25.179l0.055-0.238 25.36-96.846 94.576-38.806 67.003 57.302c5.913 5.086 13.665 8.183 22.14 8.183 9.386 0 17.885-3.799 24.043-9.943l95.597-95.597c6.167-6.161 9.982-14.676 9.982-24.082 0-8.404-3.046-16.097-8.093-22.035l0.040 0.049-57.075-67.514 38.069-91.74 97.129-24.736c14.856-3.874 25.644-17.172 25.644-32.989 0-0.031 0-0.061 0-0.092v0.005-94.463c0-0.035 0-0.075 0-0.116 0-15.776-10.732-29.045-25.293-32.906l-0.238-0.054-97.64-25.247-38.069-92.023 57.472-67.741c5.007-5.889 8.053-13.582 8.053-21.986 0-9.406-3.815-17.921-9.982-24.082v0l-95.598-95.598c-6.154-6.123-14.639-9.908-24.008-9.908-8.729 0-16.691 3.286-22.716 8.688l0.032-0.028c-13.219 11.857-45.047 39.714-66.096 57.302l-92.534-38.409-24.679-97.527c-3.874-14.856-17.172-25.644-32.989-25.644-0.011 0-0.022 0-0.032 0h0.002zM323.897 166.852l124.816-51.061c9.891-4.225 17.287-12.646 20.029-22.963l0.055-0.241 22.353-88.449h42.608l22.353 88.449c2.718 10.519 10.069 18.914 19.691 23.007l0.223 0.084 126.745 52.423c3.88 1.668 8.397 2.638 13.14 2.638 7.415 0 14.276-2.371 19.867-6.395l-0.101 0.069c13.786-9.929 41.586-34.041 62.408-51.969l50.664 51.061-50.55 59.741c-5.125 5.865-8.25 13.592-8.25 22.048 0 4.655 0.947 9.090 2.659 13.12l-0.083-0.22 52.479 126.745c4.073 9.808 12.316 17.176 22.455 19.971l0.239 0.056 88.619 22.694v41.757l-88.109 22.694c-10.395 2.753-18.661 10.105-22.612 19.691l-0.081 0.223-52.479 126.745c-1.584 3.791-2.504 8.196-2.504 12.815 0 8.472 3.095 16.221 8.216 22.178l-0.038-0.045 50.267 59.458-51.061 51.061-59.117-50.437c-5.918-5.102-13.681-8.209-22.17-8.209-4.649 0-9.080 0.932-13.117 2.619l0.225-0.083-129.241 53.217c-9.831 4.059-17.221 12.305-20.028 22.455l-0.056 0.239-23.091 87.938h-40.849l-23.602-89.47c-2.78-10.316-10.018-18.54-19.466-22.609l-0.221-0.085-126.461-53.217c-3.969-1.755-8.598-2.777-13.466-2.777-8.618 0-16.488 3.203-22.485 8.482l0.038-0.032-57.415 51.061-51.061-51.061 50.040-61.784c4.741-5.747 7.617-13.187 7.617-21.299 0-4.595-0.923-8.975-2.593-12.963l0.082 0.222-51.515-126.972c-4.183-10.199-12.881-17.796-23.539-20.377l-0.233-0.048-87.144-20.311v-42.608l89.584-24.509c10.306-2.768 18.527-9.984 22.609-19.41l0.085-0.22 53.33-126.348c1.687-3.9 2.668-8.441 2.668-13.211 0-8.711-3.272-16.658-8.654-22.678l0.029 0.033-51.061-57.302 51.061-51.061 61.897 50.267c5.81 4.767 13.318 7.657 21.502 7.659h0.001c4.285-0.14 8.32-1.045 12.029-2.58l-0.228 0.084zM400.091 336.091c-28.599 28.492-46.296 67.91-46.296 111.462 0 0.167 0 0.334 0.001 0.501v-0.026c0 0.141-0.001 0.308-0.001 0.475 0 43.552 17.697 82.97 46.291 111.457l0.005 0.005c28.532 28.634 68.003 46.352 111.612 46.352 0.114 0 0.229 0 0.343 0h-0.018c0.152 0.001 0.333 0.001 0.513 0.001 43.55 0 82.961-17.721 111.416-46.345l0.008-0.008c28.599-28.492 46.296-67.91 46.296-111.462 0-0.167 0-0.334-0.001-0.501v0.026c0-0.141 0.001-0.308 0.001-0.475 0-43.552-17.697-82.97-46.291-111.457l-0.005-0.005c-28.463-28.632-67.874-46.353-111.424-46.353-0.18 0-0.361 0-0.541 0.001h0.028c-0.097 0-0.211 0-0.325 0-43.609 0-83.080 17.718-111.607 46.348l-0.005 0.005zM448.372 511.968c-16.33-16.205-26.439-38.659-26.439-63.474 0-0.124 0-0.248 0.001-0.371v0.019c0-0.105-0.001-0.228-0.001-0.352 0-24.815 10.109-47.269 26.433-63.469l0.006-0.006c16.24-16.331 38.724-26.438 63.568-26.438 0.031 0 0.062 0 0.093 0h-0.005c0.042 0 0.091 0 0.14 0 24.882 0 47.403 10.105 63.684 26.436l0.002 0.002c16.334 16.309 26.438 38.853 26.438 63.757 0 0.024 0 0.049 0 0.073v-0.004c0 0.021 0 0.045 0 0.070 0 24.904-10.104 47.448-26.437 63.755l-0.001 0.001c-16.283 16.333-38.804 26.438-63.686 26.438-0.049 0-0.099 0-0.148 0h0.008c-24.899-0.023-47.419-10.195-63.648-26.601l-0.008-0.008z" />
<glyph unicode="&#xe93e;" glyph-name="wave" horiz-adv-x="1463" d="M804.571-64c-32.105 0.025-59.367 20.731-69.187 49.515l-0.153 0.515-213.211 639.415-48.786-195.218c-8.229-32.056-36.866-55.368-70.948-55.369h-329.143c-40.396 0-73.143 32.747-73.143 73.143s32.747 73.143 73.143 73.143v0h272.018l95.89 383.488c8.219 32.070 36.864 55.396 70.957 55.396 32.137 0 59.434-20.727 69.251-49.542l0.152-0.515 209.042-627.2 89.015 400.53c7.514 33.024 36.625 57.301 71.407 57.301 28.49 0 53.176-16.289 65.252-40.062l0.192-0.416 89.454-178.981h283.941c40.396 0 73.143-32.747 73.143-73.143s-32.747-73.143-73.143-73.143v0h-329.143c-28.463 0.016-53.122 16.287-65.198 40.032l-0.192 0.416-17.554 35.182-101.595-457.143c-7.236-31.787-34.451-55.442-67.475-57.19l-0.182-0.008z" />
<glyph unicode="&#xe93f;" glyph-name="table-delete" d="M715.475 842.12h-375.266l11.505 51.682h352.557zM922.263 775.861v0l6.024-65.536c0.030-0.052 0.048-0.114 0.048-0.181s-0.018-0.129-0.049-0.182l0.001 0.002h-802.936c-0.030 0.052-0.048 0.114-0.048 0.181s0.018 0.129 0.049 0.182l-0.001-0.002 6.024 65.536s0 0 0 0zM673.672 546.967v0c-17.256-0.166-31.306-13.67-32.342-30.689l-0.004-0.092-26.082-374.362c-0.067-0.79-0.106-1.71-0.106-2.638 0-17.226 13.243-31.359 30.104-32.772l0.12-0.008h2.349c17.256 0.166 31.306 13.67 32.342 30.689l0.004 0.092 26.082 374.423c0.067 0.79 0.106 1.71 0.106 2.638 0 17.226-13.243 31.359-30.104 32.772l-0.12 0.008zM380.024 546.967v0c-0.342 0.023-0.742 0.035-1.144 0.035s-0.802-0.013-1.199-0.038l0.054 0.003c-16.984-1.454-30.219-15.599-30.219-32.835 0-0.909 0.037-1.81 0.109-2.7l-0.008 0.117 26.082-374.423c1.040-17.11 15.090-30.614 32.33-30.78h2.365c16.98 1.422 30.224 15.555 30.224 32.78 0 0.929-0.038 1.848-0.114 2.757l0.008-0.119-26.202 374.242c-1.070 17.097-15.102 30.584-32.327 30.78h-0.019zM873.352 643.704v0l-42.165-601.269c-0.586-10.774-9.392-19.307-20.225-19.456h-568.515c-10.842 0.211-19.625 8.742-20.237 19.461l-0.002 0.055-42.165 601.329zM325.813 960c-15.453-0.12-28.331-10.996-31.523-25.505l-0.040-0.216-20.54-92.16h-143.902c-33.391-1.208-60.356-27.151-63.17-59.991l-0.017-0.244-6.024-65.536c-0.233-2.087-0.366-4.506-0.366-6.956 0-32.68 23.659-59.834 54.784-65.269l0.397-0.057 42.165-605.967c2.279-45.24 39.139-81.155 84.557-81.919l0.074-0.001h569.344c45.509 0.7 82.408 36.612 84.683 81.654l0.008 0.205 42.165 605.907c31.521 5.492 55.18 32.646 55.18 65.326 0 2.45-0.133 4.87-0.392 7.251l0.026-0.295-6.024 65.536c-2.831 33.084-29.796 59.027-63.071 60.232l-0.116 0.003h-143.661l-20.179 92.040c-2.939 14.582-15.522 25.451-30.691 25.72h-0.029z" />
<glyph unicode="&#xe940;" glyph-name="table-edit" horiz-adv-x="1025" d="M984.7 572.805c-19.248-0.396-34.7-16.093-34.7-35.399 0-0.152 0.001-0.303 0.003-0.455v0.023-429.54c-2.057-53.346-44.015-96.261-96.764-99.826l-0.318-0.017h-686.868c-43.761 0-89.151 44.399-97.082 126.752v654.295c0 102.393 72.581 99.844 97.082 99.844h457.369c19.749 0 35.76 16.010 35.76 35.76s-16.010 35.76-35.76 35.76h-462.326c-2.85 0.19-6.179 0.299-9.533 0.299-79.498 0-144.751-60.989-151.523-138.73l-0.040-0.572v-692.037c0-135.32 82.495-192.89 161.095-192.89h697.136c2.374-0.131 5.151-0.206 7.947-0.206 84.864 0 153.66 68.796 153.66 153.66 0 4.409-0.186 8.775-0.55 13.090l0.038-0.563v435.064c0 0.003 0 0.006 0 0.009 0 19.28-15.411 34.961-34.586 35.396l-0.041 0.001zM342.797 232.628l26.2 99.136 69.82-72.086-96.020-27.121zM408.793 384.235l362.27 374.237 80.866-84.973-361.562-373.458-81.574 84.124zM952.906 777.803l-49.568-51.48-80.866 84.973 49.143 50.772c3.938 3.304 9.062 5.311 14.654 5.311 6.775 0 12.862-2.946 17.050-7.626l0.019-0.022 47.443-49.072c4.72-4.803 7.67-11.357 7.789-18.601v-0.023c0.003-0.124 0.004-0.27 0.004-0.417 0-5.325-2.077-10.166-5.466-13.755l0.009 0.010zM319.712 392.378c-0.712-0.835-1.27-1.827-1.612-2.914l-0.016-0.060-51.551-195.297c-0.718-2.622-1.131-5.633-1.131-8.741 0-9.123 3.557-17.416 9.361-23.566l-0.016 0.017c5.779-5.847 13.794-9.472 22.656-9.489h0.003c0.053 0 0.116-0.001 0.179-0.001 2.961 0 5.825 0.414 8.537 1.187l-0.219-0.053 187.791 52.896s0.425 0 0.637 0c0.006 0 0.014 0 0.021 0 2.31 0 4.391 0.979 5.852 2.545l0.004 0.005 502.051 518.479c14.342 15.079 23.164 35.523 23.164 58.029 0 0.436-0.003 0.871-0.010 1.306l0.001-0.066c-0.305 27.586-11.405 52.522-29.266 70.832l0.021-0.021-47.373 49.072c-17.337 18.283-41.661 29.793-68.677 30.235l-0.081 0.001c-0.234 0.002-0.511 0.004-0.788 0.004-22.216 0-42.299-9.135-56.697-23.853l-0.014-0.014-501.98-518.621c-0.496-0.496 0-1.204-0.708-1.77z" />
<glyph unicode="&#xe941;" glyph-name="table-eye" d="M514.202 105.472c-1.686-0.018-3.679-0.029-5.674-0.029-222.682 0-414.821 130.769-503.812 319.703l-1.439 3.397c-2.041 4.285-3.233 9.312-3.233 14.618s1.192 10.333 3.323 14.828l-0.090-0.21c90.73 192.33 283.040 323.044 505.879 323.044 1.774 0 3.547-0.008 5.317-0.025l-0.271 0.002c1.558 0.016 3.399 0.025 5.241 0.025 222.786 0 415.041-130.724 504.242-319.651l1.441-3.394c2.052-4.291 3.25-9.327 3.25-14.643s-1.198-10.352-3.34-14.853l0.090 0.209c-90.455-192.305-282.589-323.049-505.26-323.049-1.974 0-3.946 0.010-5.915 0.031l0.301-0.002zM73.165 443.085c174.387-356.147 707.635-356.045 881.971 0-175.104 356.198-706.867 356.147-881.971 0zM514.15 227.277c-0.447-0.003-0.975-0.005-1.504-0.005-117.632 0-212.992 95.36-212.992 212.992 0 1.010 0.007 2.018 0.021 3.025l-0.002-0.153c2.765 275.917 415.283 295.27 430.080 0-0.204-119.105-96.703-215.604-215.789-215.808h-0.019zM514.714 589.619v0c-80.811-0.175-146.253-65.725-146.253-146.56 0-80.943 65.617-146.56 146.56-146.56 0.108 0 0.216 0 0.324 0h-0.017c76.772 5.289 137.046 68.863 137.046 146.515 0 77.868-60.61 141.58-137.227 146.532l-0.433 0.022z" />
</font>
</defs>
</svg>
