<svg xmlns="http://www.w3.org/2000/svg" xmlns:xlink="http://www.w3.org/1999/xlink" width="16.999" height="16.999" viewBox="0 0 16.999 16.999">
  <defs>
    <clipPath id="clip-path">
      <rect id="Rectangle_1191" data-name="Rectangle 1191" width="16.999" height="16.999" transform="translate(0.111 0.111)" fill="#7b7a7a"/>
    </clipPath>
  </defs>
  <g id="Group_19037_1_" data-name="Group 19037 (1)" transform="translate(-0.111 -0.111)" clip-path="url(#clip-path)">
    <path id="Path_22077" data-name="Path 22077" d="M3.95,0V5.75M13.151,0V5.75M3.375,8.625h3.45m6.9,0h-3.45m-6.9,3.45h3.45m3.45,0h3.45M1.65,2.875h13.8a1.15,1.15,0,0,1,1.15,1.15v11.5a1.15,1.15,0,0,1-1.15,1.15H1.65A1.15,1.15,0,0,1,.5,15.526V4.025a1.15,1.15,0,0,1,1.15-1.15Z" transform="translate(0.06 -0.015)" fill="none" stroke="#7b7a7a" stroke-width="1.3"/>
  </g>
</svg>
