<?xml version="1.0" encoding="utf-8"?>
<!-- Generator: Adobe Illustrator 27.5.0, SVG Export Plug-In . SVG Version: 6.00 Build 0)  -->
<svg version="1.1" id="Layer_1" xmlns="http://www.w3.org/2000/svg" xmlns:xlink="http://www.w3.org/1999/xlink" x="0px" y="0px"
	 viewBox="0 0 16 16" style="enable-background:new 0 0 16 16;" xml:space="preserve">
<style type="text/css">
	.st0{fill:#9C9FA4;}
</style>
<path class="st0" d="M15.5,9.6c-0.1-0.3-0.4-0.5-0.8-0.4c0,0,0,0,0,0c-3.4,0.9-6.9-1.1-7.9-4.5c-0.3-1.1-0.3-2.3,0-3.4
	C6.9,1,6.7,0.6,6.4,0.5c-0.1,0-0.2,0-0.3,0C2,1.7-0.3,5.9,0.8,9.9s5.3,6.4,9.4,5.3c2.6-0.7,4.6-2.7,5.3-5.3
	C15.5,9.8,15.5,9.7,15.5,9.6z"/>
</svg>
