<svg xmlns="http://www.w3.org/2000/svg" width="14.914" height="13.902" viewBox="0 0 14.914 13.902">
  <path id="Vector_-_2023-08-11T143302.968" data-name="Vector - 2023-08-11T143302.968" d="M.756,7H5.294a.732.732,0,0,0,.756-.7V.7A.732.732,0,0,0,5.294,0H.756A.732.732,0,0,0,0,.7V6.3A.732.732,0,0,0,.756,7Zm0,5.6H5.294a.732.732,0,0,0,.756-.7V9.1a.732.732,0,0,0-.756-.7H.756A.732.732,0,0,0,0,9.1v2.8A.732.732,0,0,0,.756,12.6Zm7.563,0h4.538a.732.732,0,0,0,.756-.7V6.3a.732.732,0,0,0-.756-.7H8.32a.732.732,0,0,0-.756.7v5.6A.732.732,0,0,0,8.32,12.6ZM7.563.7V3.5a.732.732,0,0,0,.756.7h4.538a.732.732,0,0,0,.756-.7V.7a.732.732,0,0,0-.756-.7H8.32A.732.732,0,0,0,7.563.7Z" transform="translate(0.65 0.65)" fill="none" stroke="#09a752" stroke-width="1.3"/>
</svg>
