<svg xmlns="http://www.w3.org/2000/svg" width="41.645" height="41.646" viewBox="0 0 41.645 41.646">
  <g id="Group_1" data-name="Group 1" transform="translate(-5 -957.358)">
    <path id="Path_1" data-name="Path 1" d="M22.9,5a1.426,1.426,0,0,0-1.215,1.07l-.781,3.4a16.97,16.97,0,0,0-3.181,1.316l-2.95-1.836a1.431,1.431,0,0,0-1.721.188L9.136,13.052a1.431,1.431,0,0,0-.188,1.721l1.836,2.95A16.97,16.97,0,0,0,9.468,20.9l-3.4.781A1.431,1.431,0,0,0,5,23.044V28.6a1.431,1.431,0,0,0,1.07,1.359l3.384.781a18.577,18.577,0,0,0,.853,2.328L7.285,35.913a3.407,3.407,0,0,0-.9,2.4,3.125,3.125,0,0,0,.839,2.328l3.731,3.731a2.825,2.825,0,0,0,2.14.882,2.922,2.922,0,0,0,2.111-.882h.014l7.808-7.779a12.542,12.542,0,0,0,2.791.333A10.893,10.893,0,0,0,36.927,25.82a11.553,11.553,0,0,0-.535-3.687,1.388,1.388,0,0,0-2.3-.535L28.6,27.093l-3.441-.622-.622-3.427,5.509-5.509a1.388,1.388,0,0,0-.578-2.3,14.134,14.134,0,0,0-4.107-.521A10.5,10.5,0,0,0,17.9,17.9a11.339,11.339,0,0,0-3.181,7.9,11.741,11.741,0,0,0,.318,2.791l-2.574,2.429a13.842,13.842,0,0,1-.578-1.793,1.419,1.419,0,0,0-1.027-1.027l-3.08-.709V24.157l3.08-.709a1.419,1.419,0,0,0,1.027-1.027,14.278,14.278,0,0,1,1.677-4.034,1.5,1.5,0,0,0-.014-1.475l-1.663-2.675,2.357-2.357,2.675,1.663a1.4,1.4,0,0,0,.737.217h.014a1.4,1.4,0,0,0,.723-.2,14.278,14.278,0,0,1,4.034-1.677,1.419,1.419,0,0,0,1.027-1.027l.709-3.08h3.326l.709,3.08a1.419,1.419,0,0,0,1.027,1.027,14.278,14.278,0,0,1,4.034,1.677,1.4,1.4,0,0,0,.723.2h.014a1.4,1.4,0,0,0,.737-.217L37.4,11.881l2.386,2.371c-.2.347-.277.459-.549.925s-.535.925-.737,1.272a1.97,1.97,0,0,0-.318,1.981v.014h-.014a21.81,21.81,0,0,1,1.591,3.976,1.419,1.419,0,0,0,1.027,1.027l3.08.709v3.326l-3.08.709a1.419,1.419,0,0,0-1.027,1.027,15.3,15.3,0,0,1-1.677,4.034,1.275,1.275,0,0,0,.014,1.475L39.762,37.4,37.4,39.759,34.73,38.1a1.3,1.3,0,0,0-1.475-.014,17.217,17.217,0,0,1-4.034,1.677,1.419,1.419,0,0,0-1.027,1.027l-.709,3.08H24.159l-.4-1.706a1.388,1.388,0,1,0-2.7.622l.636,2.791a1.431,1.431,0,0,0,1.359,1.07H28.6a1.431,1.431,0,0,0,1.359-1.07l.781-3.4a16.97,16.97,0,0,0,3.181-1.316l2.95,1.836a1.431,1.431,0,0,0,1.721-.188l3.919-3.919a1.431,1.431,0,0,0,.188-1.721l-1.836-2.95a16.971,16.971,0,0,0,1.316-3.181l3.4-.781a1.431,1.431,0,0,0,1.07-1.359V23.044a1.431,1.431,0,0,0-1.07-1.359L42.162,20.9a19.587,19.587,0,0,0-1.229-3.109c.2-.34.45-.773.709-1.215.54-.923,1.084-1.851,1.084-1.851a1.43,1.43,0,0,0-.217-1.677L38.59,9.133a1.431,1.431,0,0,0-1.721-.188l-2.95,1.836a16.97,16.97,0,0,0-3.181-1.316l-.781-3.4A1.431,1.431,0,0,0,28.6,5H23.046A1.388,1.388,0,0,0,22.9,5ZM25.36,17.491c.26,0,.51.032.766.043L22.063,21.6a1.413,1.413,0,0,0-.376,1.229l.925,5.09a1.424,1.424,0,0,0,1.113,1.113l5.09.925a1.413,1.413,0,0,0,1.229-.39l4.092-4.092c0,.117.014.228.014.347a8.357,8.357,0,0,1-2.371,5.957,8.466,8.466,0,0,1-5.957,2.371,8.652,8.652,0,0,1-2.791-.39,1.42,1.42,0,0,0-1.432.333L13.257,42.42a.246.246,0,0,1-.347-.014L9.266,38.762a.817.817,0,0,1,0-.911l8.257-7.794a1.421,1.421,0,0,0,.361-1.446,8.167,8.167,0,0,1-.39-2.776,8.7,8.7,0,0,1,2.371-5.986A7.575,7.575,0,0,1,25.36,17.491Z" transform="translate(0 952.362)" fill="#777980"/>
  </g>
</svg>
