<svg xmlns="http://www.w3.org/2000/svg" width="16.001" height="19.152" viewBox="0 0 16.001 19.152">
  <path id="Path_4" data-name="Path 4" d="M141.934,36.3a.663.663,0,0,0-.663.663V42.6a.663.663,0,0,0,.663.663h10.031a.663.663,0,0,0,.663-.663V36.961a.663.663,0,0,0-.663-.663Zm4.352,1.327v1.491H142.6V37.624ZM142.6,40.442h3.689v1.491H142.6Zm5.016,1.491V40.442H151.3v1.491Zm3.689-2.817h-3.689V37.624H151.3Zm3.406-7-4.79-4.531a.084.084,0,0,0-.02-.017.707.707,0,0,0-.076-.063.614.614,0,0,0-.146-.076c-.03-.01-.063-.02-.093-.027h-.007a.546.546,0,0,0-.126-.013H141.6a2.657,2.657,0,0,0-2.654,2.654V43.884a2.657,2.657,0,0,0,2.654,2.654H152.3a2.657,2.657,0,0,0,2.654-2.654V32.623a.658.658,0,0,0-.242-.511Zm-1.085,11.772A1.327,1.327,0,0,1,152.3,45.21H141.6a1.327,1.327,0,0,1-1.327-1.327V30.038a1.327,1.327,0,0,1,1.327-1.327h7.185v3.911a.665.665,0,0,0,.663.663h4.172Z" transform="translate(-138.949 -27.385)" fill="#afabab"/>
</svg>
