<svg id="github" xmlns="http://www.w3.org/2000/svg" width="60" height="60.105" viewBox="0 0 60 60.105">
  <rect id="Rectangle_4" data-name="Rectangle 4" width="60" height="60" rx="30"/>
  <path id="Path_1" data-name="Path 1" d="M34.654,51.586a27.21,27.21,0,0,1-16.763,0,1.329,1.329,0,0,0,1.67-1.334c0-.3-.005-.825-.012-1.529-.008-.815-.018-1.868-.025-3.081-7.537,1.638-9.127-3.635-9.127-3.635C9.166,38.875,7.39,38.041,7.39,38.041c-2.46-1.683.186-1.649.186-1.649a5.69,5.69,0,0,1,4.148,2.794c2.418,4.143,6.341,2.947,7.886,2.252a5.792,5.792,0,0,1,1.72-3.624C15.314,37.13,8.99,34.8,8.99,24.416a10.483,10.483,0,0,1,2.789-7.276,9.752,9.752,0,0,1,.264-7.174s2.276-.729,7.45,2.779a25.642,25.642,0,0,1,13.566,0C38.231,9.237,40.5,9.966,40.5,9.966a9.736,9.736,0,0,1,.269,7.174,10.465,10.465,0,0,1,2.785,7.276c0,10.414-6.334,12.707-12.369,13.378a6.474,6.474,0,0,1,1.839,5.021c0,2.424-.015,4.533-.025,5.931,0,.693-.009,1.211-.009,1.506A1.319,1.319,0,0,0,34.654,51.586Z" transform="translate(3.907 7.197)" fill="#fff" fill-rule="evenodd"/>
</svg>
