<svg xmlns="http://www.w3.org/2000/svg" width="16.168" height="13.886" viewBox="0 0 16.168 13.886">
  <path id="Vector_-_2025-07-04T012925.375" data-name="Vector - 2025-07-04T012925.375" d="M10.979,13.686H5.989m4.989,0V4.262a.569.569,0,0,0-.146-.384.479.479,0,0,0-.353-.159H6.488a.479.479,0,0,0-.353.159.569.569,0,0,0-.146.384v9.424m4.989,0h4.49a.479.479,0,0,0,.353-.159.57.57,0,0,0,.146-.384v-2.99a.57.57,0,0,0-.146-.384.479.479,0,0,0-.353-.159H11.477a.479.479,0,0,0-.353.159.57.57,0,0,0-.146.384Zm-4.989,0V8.34a.569.569,0,0,0-.146-.384A.479.479,0,0,0,5.49,7.8H1.5a.479.479,0,0,0-.353.159A.569.569,0,0,0,1,8.34v4.8a.57.57,0,0,0,.146.384.479.479,0,0,0,.353.159ZM10.979,1H5.989" transform="translate(-0.4 -0.4)" fill="none" stroke="#7b7a7a" stroke-linecap="round" stroke-linejoin="round" stroke-width="1.2"/>
</svg>
