<?xml version="1.0" encoding="utf-8"?>
<!-- Generator: Adobe Illustrator 27.5.0, SVG Export Plug-In . SVG Version: 6.00 Build 0)  -->
<svg version="1.1" id="Layer_1" xmlns="http://www.w3.org/2000/svg" xmlns:xlink="http://www.w3.org/1999/xlink" x="0px" y="0px"
	 viewBox="0 0 16 16" style="enable-background:new 0 0 16 16;" xml:space="preserve">
<style type="text/css">
	.st0{opacity:0;fill:none;stroke:#9C9FA4;stroke-width:0.25;stroke-miterlimit:10;}
	.st1{fill:#9C9FA4;}
</style>
<rect class="st0" width="16" height="16"/>
<g>
	<path class="st1" d="M8,4.8c-0.8,0-1.7,0.3-2.3,0.9C5.1,6.3,4.8,7.1,4.8,8c0,0.9,0.3,1.7,0.9,2.3c0.6,0.6,1.4,0.9,2.3,0.9
		c0.8,0,1.7-0.3,2.3-0.9c0.6-0.6,0.9-1.4,0.9-2.3c0-0.8-0.3-1.7-0.9-2.3C9.7,5.1,8.8,4.8,8,4.8L8,4.8z M8,10C6.9,10,5.9,9.1,5.9,8
		S6.9,5.9,8,5.9s2.1,0.9,2.1,2.1S9.1,10,8,10L8,10z M13,3c-0.3-0.3-0.9-0.2-1.3,0.1c-0.4,0.4-0.5,1-0.1,1.3c0.3,0.3,0.9,0.3,1.3-0.1
		C13.2,3.9,13.3,3.3,13,3L13,3z M3.1,11.7c-0.4,0.4-0.5,1-0.1,1.3c0.3,0.3,0.9,0.2,1.3-0.1c0.4-0.4,0.5-1,0.1-1.3
		C4.1,11.3,3.5,11.3,3.1,11.7L3.1,11.7z M3,3C2.7,3.3,2.7,3.9,3.1,4.3c0.4,0.4,1,0.5,1.3,0.1c0.3-0.3,0.3-0.9-0.1-1.3
		C3.9,2.8,3.3,2.7,3,3L3,3z M11.7,12.9c0.4,0.4,1,0.5,1.3,0.1s0.2-0.9-0.1-1.3c-0.4-0.4-1-0.5-1.3-0.1
		C11.3,11.9,11.3,12.5,11.7,12.9L11.7,12.9z M8,3c0.4,0,0.8-0.4,0.8-1c0-0.6-0.4-1-0.8-1C7.6,1,7.2,1.4,7.2,2C7.2,2.6,7.6,3,8,3L8,3
		z M8,15c0.4,0,0.8-0.4,0.8-1S8.4,13,8,13c-0.4,0-0.8,0.4-0.8,1S7.6,15,8,15L8,15z M3,8c0-0.4-0.4-0.8-1-0.8C1.4,7.2,1,7.6,1,8
		c0,0.4,0.4,0.8,1,0.8C2.6,8.8,3,8.4,3,8L3,8z M15,8c0-0.4-0.4-0.8-1-0.8c-0.6,0-1,0.4-1,0.8c0,0.4,0.4,0.8,1,0.8
		C14.6,8.8,15,8.4,15,8L15,8z M15,8"/>
</g>
</svg>
