<svg xmlns="http://www.w3.org/2000/svg" width="16.217" height="16.217" viewBox="0 0 16.217 16.217">
  <path id="Vector_-_2025-06-26T122143.695" data-name="Vector - 2025-06-26T122143.695" d="M14.415,0a1.8,1.8,0,0,1,1.8,1.8V14.415a1.8,1.8,0,0,1-1.8,1.8H1.8a1.8,1.8,0,0,1-1.8-1.8V1.8A1.8,1.8,0,0,1,1.8,0Zm-.45,13.964V9.19a2.937,2.937,0,0,0-2.937-2.937,2.611,2.611,0,0,0-2.09,1.171v-1H6.424v7.541H8.937V9.523a1.257,1.257,0,1,1,2.514,0v4.442ZM3.5,5.009A1.516,1.516,0,1,0,1.973,3.5,1.514,1.514,0,0,0,3.5,5.009Zm1.252,8.955V6.424h-2.5v7.541Z" fill="#fff"/>
</svg>
