<svg xmlns="http://www.w3.org/2000/svg" width="16.301" height="18.182" viewBox="0 0 16.301 18.182">
  <path id="Path_5" data-name="Path 5" d="M120.631,12.32H112.4a.44.44,0,0,0-.3.13l-5.588,6.128a.379.379,0,0,0-.112.279v9.63a1.746,1.746,0,0,0,1.77,1.714h12.461a1.746,1.746,0,0,0,1.77-1.714V14.034a1.734,1.734,0,0,0-1.77-1.714Zm.95,16.187a.916.916,0,0,1-.95.875H108.169a.916.916,0,0,1-.95-.875V19.026l5.346-5.868h8.066a.916.916,0,0,1,.95.875ZM110.87,19.491h-2.4a.41.41,0,1,1,0-.82h2.4a1.443,1.443,0,0,0,1.471-1.434V14.35a.41.41,0,1,1,.82,0v2.868a2.274,2.274,0,0,1-2.291,2.273Zm7.06,3.856a17.043,17.043,0,0,1-2.868-3.371c.186-.671.3-1.118.3-1.136,0-.037.019-.056.019-.093,0-1.267-.745-1.341-.894-1.341a.869.869,0,0,0-.708.391c-.317.484-.186,1.229.391,2.272a17.138,17.138,0,0,1-1.807,4.3,9.37,9.37,0,0,0-1.155.5c-.82.391-1.583.838-1.676,1.416a.746.746,0,0,0,.242.652.833.833,0,0,0,.577.223c.708,0,1.49-.82,2.217-1.7l.093-.112.223-.279a18.35,18.35,0,0,1,4.1-.913,3.394,3.394,0,0,1,.633,0c1.211,1.043,1.7,1.043,1.844,1.043a.656.656,0,0,0,.522-.223.752.752,0,0,0,.186-.838c-.075-.186-.28-.689-2.235-.8Zm-7.525,2.98a2.187,2.187,0,0,1,.652-.447C110.721,26.2,110.535,26.309,110.4,26.328Zm4.042-8.065a.905.905,0,0,1,.074.428.831.831,0,0,1-.037.149,1.071,1.071,0,0,1-.037-.577ZM113.553,24a20.3,20.3,0,0,0,1.192-2.98,19.292,19.292,0,0,0,1.993,2.347A16.344,16.344,0,0,0,113.553,24Zm5.9.782v0Z" transform="translate(-106.25 -12.17)" fill="#afabab" stroke="#a8a3a4" stroke-width="0.3"/>
</svg>
