<svg xmlns="http://www.w3.org/2000/svg" width="16.945" height="15.137" viewBox="0 0 16.945 15.137">
  <g id="Group_-_2025-05-15T232003.867" data-name="Group - 2025-05-15T232003.867" transform="translate(-0.5 -0.5)">
    <path id="Path_22063" data-name="Path 22063" d="M8.973,14.708H2.2a1.155,1.155,0,0,1-.846-.376A1.336,1.336,0,0,1,1,13.423V2.285a1.335,1.335,0,0,1,.35-.909A1.155,1.155,0,0,1,2.2,1H15.749a1.155,1.155,0,0,1,.846.376,1.335,1.335,0,0,1,.35.909V7.451" fill="none" stroke="#7b7a7a" stroke-linecap="round" stroke-linejoin="round" stroke-width="1"/>
    <path id="Path_22064" data-name="Path 22064" d="M1,2.285a1.335,1.335,0,0,1,.35-.909A1.155,1.155,0,0,1,2.2,1H15.749a1.155,1.155,0,0,1,.846.376,1.335,1.335,0,0,1,.35.909V6.141H1Z" fill="none" stroke="#7b7a7a" stroke-width="1"/>
    <path id="Path_22065" data-name="Path 22065" d="M3,3.857a.857.857,0,1,1,.857.857A.857.857,0,0,1,3,3.857Z" transform="translate(-0.286 -0.286)" fill="#7b7a7a"/>
    <path id="Path_22066" data-name="Path 22066" d="M6,3.857a.857.857,0,1,1,.857.857A.857.857,0,0,1,6,3.857Z" transform="translate(-1.047 -0.286)" fill="#7b7a7a"/>
    <path id="Path_22067" data-name="Path 22067" d="M17.285,15.07A1.285,1.285,0,1,0,16,13.785,1.285,1.285,0,0,0,17.285,15.07Z" transform="translate(-3.339 -1.647)" fill="none" stroke="#7b7a7a" stroke-width="1"/>
    <path id="Path_22068" data-name="Path 22068" d="M17.066,16.5V14.784m0-2.57V10.5m-2.6,4.5,1.484-.857m2.226-1.285L19.663,12m-5.194,0,1.484.857m2.226,1.285L19.663,15" transform="translate(-3.12 -1.361)" fill="none" stroke="#7b7a7a" stroke-linecap="round" stroke-linejoin="round" stroke-width="1"/>
  </g>
</svg>
