<svg xmlns="http://www.w3.org/2000/svg" width="39.425" height="39.425" viewBox="0 0 39.425 39.425">
  <g id="noun_Search_2863045" transform="translate(-6 -6)">
    <g id="Group_1" data-name="Group 1" transform="translate(6 6)">
      <path id="Path_1" data-name="Path 1" d="M22.756,39.511A16.756,16.756,0,1,1,39.511,22.756,16.756,16.756,0,0,1,22.756,39.511Zm0-3.942A12.813,12.813,0,1,0,9.942,22.756,12.813,12.813,0,0,0,22.756,35.569Z" transform="translate(-6 -6)" fill="#8a8d93" fill-rule="evenodd"/>
      <path id="Path_2" data-name="Path 2" d="M32.416,29.628a1.971,1.971,0,1,1-2.788,2.788l-10.25-10.25a1.971,1.971,0,0,1,2.788-2.788Z" transform="translate(6.432 6.432)" fill="#8a8d93" fill-rule="evenodd"/>
    </g>
  </g>
</svg>
