<svg xmlns="http://www.w3.org/2000/svg" width="18.05" height="18.05" viewBox="0 0 18.05 18.05">
  <g id="Group_-_2025-05-15T090042.124" data-name="Group - 2025-05-15T090042.124" transform="translate(-0.4 -0.4)">
    <path id="Path_2809" data-name="Path 2809" d="M10.19,12.379a2.19,2.19,0,1,0-1.548-.641A2.19,2.19,0,0,0,10.19,12.379Z" transform="translate(-0.765 -0.765)" fill="none" stroke="#7b7a7a" stroke-linecap="round" stroke-linejoin="round" stroke-width="1.2"/>
    <path id="Path_2810" data-name="Path 2810" d="M15.847,8.073,14.922,5.84l1.243-1.47L14.48,2.685,13.018,3.934,10.738,3l-.525-2H8.566L8.034,3.023l-2.228.939L4.37,2.685,2.685,4.37,3.909,5.877,3,8.116,1,8.583v1.685l2.023.553.939,2.228L2.685,14.48,4.37,16.165l1.509-1.23,2.2.9.508,2.012h1.685l.509-2.011,2.233-.925c.372.267,1.47,1.251,1.47,1.251l1.685-1.685-1.25-1.474.925-2.234,2.01-.522V8.583Z" fill="none" stroke="#7b7a7a" stroke-linecap="round" stroke-linejoin="round" stroke-width="1.2"/>
  </g>
</svg>
