<svg id="Group_1288_1_" data-name="Group 1288 (1)" xmlns="http://www.w3.org/2000/svg" width="16.854" height="16.854" viewBox="0 0 16.854 16.854">
  <path id="Path_999" data-name="Path 999" d="M8.427,16.854a8.427,8.427,0,1,1,8.427-8.427A8.436,8.436,0,0,1,8.427,16.854Zm0-15.65A7.223,7.223,0,1,0,15.65,8.427,7.229,7.229,0,0,0,8.427,1.2Z" fill="#7b7a7a"/>
  <path id="Path_1000" data-name="Path 1000" d="M7.408,3.5A2.4,2.4,0,0,0,5,5.908H6.2a1.2,1.2,0,1,1,2.408,0c0,1.2-1.806,1.059-1.806,3.01h1.2c0-1.348,1.806-1.5,1.806-3.01A2.4,2.4,0,0,0,7.408,3.5Z" transform="translate(1.019 0.713)" fill="#7b7a7a"/>
  <path id="Path_1001" data-name="Path 1001" d="M7.127,10.873a.746.746,0,1,0-.746-.746A.746.746,0,0,0,7.127,10.873Z" transform="translate(1.301 1.912)" fill="#7b7a7a"/>
  <path id="Path_1002" data-name="Path 1002" d="M7.1,8.7a.6.6,0,1,0-.6-.6A.6.6,0,0,0,7.1,8.7Z" transform="translate(1.325 1.529)" fill="#7b7a7a"/>
</svg>
