<svg xmlns="http://www.w3.org/2000/svg" width="16.1" height="16.1" viewBox="0 0 16.1 16.1">
  <path id="Vector_-_2025-07-04T012307.910" data-name="Vector - 2025-07-04T012307.910" d="M8,1a1.5,1.5,0,1,0,1.061.439A1.5,1.5,0,0,0,8,1ZM5.5,2.5a2.5,2.5,0,1,1,.732,1.768A2.5,2.5,0,0,1,5.5,2.5Zm8-.5a1,1,0,1,0,.707.293A1,1,0,0,0,13.5,2Zm-2,1a2,2,0,1,1,.586,1.414A2,2,0,0,1,11.5,3ZM1.5,3a1,1,0,1,1,.293.707A1,1,0,0,1,1.5,3Zm1-2a2,2,0,1,0,1.414.586A2,2,0,0,0,2.5,1Zm.6,12L3,13a2,2,0,0,1-2-2V7.25A.25.25,0,0,1,1.25,7H3.014a2.237,2.237,0,0,1,.365-1H1.25A1.25,1.25,0,0,0,0,7.25V11a3,3,0,0,0,3.4,2.973A5,5,0,0,1,3.1,13Zm9.5.975A3,3,0,0,0,16,11V7.25A1.25,1.25,0,0,0,14.75,6H12.621a2.225,2.225,0,0,1,.365,1H14.75a.25.25,0,0,1,.25.25V11a2,2,0,0,1-2.1,2A5.005,5.005,0,0,1,12.6,13.973ZM5.25,6A1.25,1.25,0,0,0,4,7.25V12a4,4,0,0,0,8,0V7.25A1.25,1.25,0,0,0,10.75,6ZM5,7.25A.25.25,0,0,1,5.25,7h5.5a.25.25,0,0,1,.25.25V12a3,3,0,0,1-6,0Z" transform="translate(0.05 0.05)" fill="#7b7a7a" stroke="#707070" stroke-width="0.1"/>
</svg>
