<svg xmlns="http://www.w3.org/2000/svg" width="18.316" height="14.884" viewBox="0 0 18.316 14.884">
  <path id="Vector_-_2025-06-26T122131.610" data-name="Vector - 2025-06-26T122131.610" d="M18.316,1.751a7.5,7.5,0,0,1-2.154.6A3.764,3.764,0,0,0,17.809.271a7.565,7.565,0,0,1-2.381.919A3.7,3.7,0,0,0,12.66,0,3.752,3.752,0,0,0,8.922,3.756a3.9,3.9,0,0,0,.1.858A10.677,10.677,0,0,1,1.278.692,3.716,3.716,0,0,0,.77,2.574,3.7,3.7,0,0,0,2.443,5.691,3.715,3.715,0,0,1,.735,5.253V5.28A3.759,3.759,0,0,0,3.747,8.966a3.678,3.678,0,0,1-1.69.061,3.747,3.747,0,0,0,3.5,2.609A7.46,7.46,0,0,1,.893,13.247,7.637,7.637,0,0,1,0,13.194a10.633,10.633,0,0,0,5.761,1.69,10.626,10.626,0,0,0,10.69-10.69c0-.166,0-.324-.009-.49A7.5,7.5,0,0,0,18.316,1.751Z" fill="#fff"/>
</svg>
