<svg xmlns="http://www.w3.org/2000/svg" width="16.195" height="15.359" viewBox="0 0 16.195 15.359">
  <g id="Group_1289" data-name="Group 1289" transform="translate(-2 -2)">
    <path id="Path_2637" data-name="Path 2637" d="M10.937,15.937H7.646A1.646,1.646,0,0,0,6,17.582v1.1H7.1v-1.1a.549.549,0,0,1,.549-.549h3.291a.549.549,0,0,1,.549.549v1.1h1.1v-1.1a1.646,1.646,0,0,0-1.646-1.646Zm-1.646-.549a2.194,2.194,0,1,0-1.551-.643A2.194,2.194,0,0,0,9.291,15.388Zm0-3.291a1.1,1.1,0,1,1-.776.321A1.1,1.1,0,0,1,9.291,12.1Z" transform="translate(-1.806 -4.063)" fill="#7b7a7a"/>
    <path id="Path_2638" data-name="Path 2638" d="M16.02,13.131v4.937H3.078V7.1H9.549V6H3.078a1.069,1.069,0,0,0-.763.321A1.107,1.107,0,0,0,2,7.1v10.97a1.107,1.107,0,0,0,.316.776,1.069,1.069,0,0,0,.763.321H16.02a1.069,1.069,0,0,0,.763-.321,1.107,1.107,0,0,0,.316-.776V13.131Z" transform="translate(0 -1.806)" fill="#7b7a7a"/>
    <path id="Path_2639" data-name="Path 2639" d="M19.1,11.325h3.291v1.1H19.1Zm1.1,2.194h2.194v1.1H20.194Zm5.485-7.131v-1.1H24.527a2.742,2.742,0,0,0-.4-.962l.817-.817-.776-.776-.817.817a2.743,2.743,0,0,0-.962-.4V2h-1.1V3.152a2.743,2.743,0,0,0-.962.4l-.817-.817-.776.776.817.817a2.742,2.742,0,0,0-.4.962H18v1.1h1.152a2.742,2.742,0,0,0,.4.962l-.817.817.776.776.817-.817a2.742,2.742,0,0,0,.962.4V9.679h1.1V8.527a2.742,2.742,0,0,0,.962-.4l.817.817.776-.776-.817-.817a2.742,2.742,0,0,0,.4-.962Zm-3.84,1.1A1.647,1.647,0,1,1,23,7,1.645,1.645,0,0,1,21.84,7.485Z" transform="translate(-7.484)" fill="#7b7a7a"/>
  </g>
</svg>
